<?xml version="1.0" encoding="UTF-8" standalone="no"?>
<!-- Created with Inkscape (http://www.inkscape.org/) -->

<svg
   version="1.1"
   id="svg2"
   width="485.66946"
   height="159.79597"
   viewBox="0 0 485.66946 159.79597"
   xmlns="http://www.w3.org/2000/svg"
   xmlns:svg="http://www.w3.org/2000/svg">
  <defs
     id="defs6">
    <clipPath
       clipPathUnits="userSpaceOnUse"
       id="clipPath22">
      <path
         d="M 0,0 H 365 V 120 H 0 Z"
         id="path20" />
    </clipPath>
    <clipPath
       clipPathUnits="userSpaceOnUse"
       id="clipPath36">
      <path
         d="M 0,0 H 365 V 120 H 0 Z"
         id="path34" />
    </clipPath>
    <clipPath
       clipPathUnits="userSpaceOnUse"
       id="clipPath50">
      <path
         d="M 0,0 H 365 V 120 H 0 Z"
         id="path48" />
    </clipPath>
    <clipPath
       clipPathUnits="userSpaceOnUse"
       id="clipPath64">
      <path
         d="M 0,0 H 365 V 120 H 0 Z"
         id="path62" />
    </clipPath>
    <clipPath
       clipPathUnits="userSpaceOnUse"
       id="clipPath78">
      <path
         d="M 0,0 H 365 V 120 H 0 Z"
         id="path76" />
    </clipPath>
    <clipPath
       clipPathUnits="userSpaceOnUse"
       id="clipPath92">
      <path
         d="M 0,0 H 365 V 120 H 0 Z"
         id="path90" />
    </clipPath>
    <clipPath
       clipPathUnits="userSpaceOnUse"
       id="clipPath106">
      <path
         d="M 0,0 H 365 V 120 H 0 Z"
         id="path104" />
    </clipPath>
    <clipPath
       clipPathUnits="userSpaceOnUse"
       id="clipPath128">
      <path
         d="M 0,0 H 365 V 120 H 0 Z"
         id="path126" />
    </clipPath>
    <clipPath
       clipPathUnits="userSpaceOnUse"
       id="clipPath148">
      <path
         d="M 0,0 H 365 V 120 H 0 Z"
         id="path146" />
    </clipPath>
    <clipPath
       clipPathUnits="userSpaceOnUse"
       id="clipPath162">
      <path
         d="M 0,0 H 365 V 120 H 0 Z"
         id="path160" />
    </clipPath>
    <clipPath
       clipPathUnits="userSpaceOnUse"
       id="clipPath182">
      <path
         d="M 0,0 H 365 V 120 H 0 Z"
         id="path180" />
    </clipPath>
    <clipPath
       clipPathUnits="userSpaceOnUse"
       id="clipPath202">
      <path
         d="M 0,0 H 365 V 120 H 0 Z"
         id="path200" />
    </clipPath>
    <clipPath
       clipPathUnits="userSpaceOnUse"
       id="clipPath218">
      <path
         d="M 0,0 H 365 V 120 H 0 Z"
         id="path216" />
    </clipPath>
    <clipPath
       clipPathUnits="userSpaceOnUse"
       id="clipPath234">
      <path
         d="M 0,0 H 365 V 120 H 0 Z"
         id="path232" />
    </clipPath>
    <clipPath
       clipPathUnits="userSpaceOnUse"
       id="clipPath250">
      <path
         d="M 0,0 H 365 V 120 H 0 Z"
         id="path248" />
    </clipPath>
    <clipPath
       clipPathUnits="userSpaceOnUse"
       id="clipPath266">
      <path
         d="M 0,0 H 365 V 120 H 0 Z"
         id="path264" />
    </clipPath>
    <clipPath
       clipPathUnits="userSpaceOnUse"
       id="clipPath284">
      <path
         d="M 0,0 H 365 V 120 H 0 Z"
         id="path282" />
    </clipPath>
    <clipPath
       clipPathUnits="userSpaceOnUse"
       id="clipPath304">
      <path
         d="M 0,0 H 365 V 120 H 0 Z"
         id="path302" />
    </clipPath>
    <clipPath
       clipPathUnits="userSpaceOnUse"
       id="clipPath320">
      <path
         d="M 0,0 H 365 V 120 H 0 Z"
         id="path318" />
    </clipPath>
    <clipPath
       clipPathUnits="userSpaceOnUse"
       id="clipPath334">
      <path
         d="M 0,0 H 365 V 120 H 0 Z"
         id="path332" />
    </clipPath>
    <clipPath
       clipPathUnits="userSpaceOnUse"
       id="clipPath356">
      <path
         d="M 0,0 H 365 V 120 H 0 Z"
         id="path354" />
    </clipPath>
    <clipPath
       clipPathUnits="userSpaceOnUse"
       id="clipPath376">
      <path
         d="M 0,0 H 365 V 120 H 0 Z"
         id="path374" />
    </clipPath>
    <clipPath
       clipPathUnits="userSpaceOnUse"
       id="clipPath390">
      <path
         d="M 0,0 H 365 V 120 H 0 Z"
         id="path388" />
    </clipPath>
    <clipPath
       clipPathUnits="userSpaceOnUse"
       id="clipPath406">
      <path
         d="M 0,0 H 365 V 120 H 0 Z"
         id="path404" />
    </clipPath>
    <clipPath
       clipPathUnits="userSpaceOnUse"
       id="clipPath422">
      <path
         d="M 0,0 H 365 V 120 H 0 Z"
         id="path420" />
    </clipPath>
    <clipPath
       clipPathUnits="userSpaceOnUse"
       id="clipPath438">
      <path
         d="M 0,0 H 365 V 120 H 0 Z"
         id="path436" />
    </clipPath>
    <clipPath
       clipPathUnits="userSpaceOnUse"
       id="clipPath454">
      <path
         d="M 0,0 H 365 V 120 H 0 Z"
         id="path452" />
    </clipPath>
  </defs>
  <g
     id="g8"
     transform="scale(1.3333333)">
    <g
       id="g10">
      <path
         d="m 129.75,0 h 1.094 v 119.848 h -1.094 z"
         style="fill:#ffffff;fill-opacity:1;fill-rule:nonzero;stroke:none"
         id="path12" />
      <g
         id="g14">
        <g
           id="g16">
          <g
             id="g18"
             clip-path="url(#clipPath22)">
            <g
               id="g24">
              <path
                 d="m 186.555,60.594 c -6.926,-4.77 -10.66,-7.313 -14.16,-9.91 -1.688,2.781 -2.657,6.046 -2.657,9.539 0,6.336 3.192,11.918 8.055,15.242 2.023,-3.996 4.746,-8.442 8.762,-14.871"
                 style="fill:#ffffff;fill-opacity:1;fill-rule:nonzero;stroke:none"
                 id="path26" />
            </g>
          </g>
        </g>
      </g>
      <g
         id="g28">
        <g
           id="g30">
          <g
             id="g32"
             clip-path="url(#clipPath36)">
            <g
               id="g38">
              <path
                 d="m 204.695,64.273 c -2.851,3.028 -7.422,3.473 -10.695,1.411 -0.629,-0.399 -5.133,-3.504 -5.133,-3.504 -4.98,7.027 -7.539,10.562 -10.285,13.797 2.797,1.707 6.086,2.691 9.602,2.691 9.886,0 17.957,-7.781 18.421,-17.559 -0.402,1.176 -1.058,2.266 -1.91,3.164"
                 style="fill:#ffffff;fill-opacity:1;fill-rule:nonzero;stroke:none"
                 id="path40" />
            </g>
          </g>
        </g>
      </g>
      <g
         id="g42">
        <g
           id="g44">
          <g
             id="g46"
             clip-path="url(#clipPath50)">
            <g
               id="g52">
              <path
                 d="m 201.285,53.883 c -0.613,-0.406 -4.566,-3.035 -4.566,-3.035 -3.239,4.777 -3.75,5.476 -6.223,9.023 0,0 4.301,2.785 4.922,3.168 2.23,1.371 5.184,0.961 6.918,-0.965 0.668,-0.746 1.144,-1.664 1.32,-2.636 0.348,-1.793 -0.222,-4.141 -2.371,-5.555"
                 style="fill:#ffffff;fill-opacity:1;fill-rule:nonzero;stroke:none"
                 id="path54" />
            </g>
          </g>
        </g>
      </g>
      <g
         id="g56">
        <g
           id="g58">
          <g
             id="g60"
             clip-path="url(#clipPath64)">
            <g
               id="g66">
              <path
                 d="m 188.008,58.27 c 2.34,-3.731 4.453,-7.051 7.773,-12.071 0,0 6.973,4.598 7.594,5.039 0.734,0.524 1.266,1.047 1.688,1.551 -2.86,-6.484 -9.34,-11.012 -16.879,-11.012 -6.016,0 -11.352,2.875 -14.719,7.328 3.715,2.2 8.148,5.055 14.543,9.165"
                 style="fill:#ffffff;fill-opacity:1;fill-rule:nonzero;stroke:none"
                 id="path68" />
            </g>
          </g>
        </g>
      </g>
      <g
         id="g70">
        <g
           id="g72">
          <g
             id="g74"
             clip-path="url(#clipPath78)">
            <g
               id="g80">
              <path
                 d="m 170.742,46.941 c 0.004,-1.285 -1.035,-2.332 -2.316,-2.336 -1.285,-0.003 -2.332,1.036 -2.336,2.321 -0.004,1.281 1.031,2.328 2.316,2.332 1.285,0.004 2.328,-1.031 2.336,-2.317"
                 style="fill:#ffffff;fill-opacity:1;fill-rule:nonzero;stroke:none"
                 id="path82" />
            </g>
          </g>
        </g>
      </g>
      <g
         id="g84">
        <g
           id="g86">
          <g
             id="g88"
             clip-path="url(#clipPath92)">
            <g
               id="g94">
              <path
                 d="m 172.371,40.16 1.098,-0.781 c 0.644,-0.461 1.32,-0.387 1.719,0.172 l 0.003,0.012 c 0.45,0.621 0.18,1.304 -0.429,1.742 l -0.551,0.394 0.637,0.895 -0.489,0.347 z m 2.09,0.692 c 0.371,-0.262 0.453,-0.633 0.246,-0.926 l -0.004,-0.008 c -0.234,-0.324 -0.594,-0.328 -0.957,-0.066 l -0.566,0.406 0.715,1 z"
                 style="fill:#ffffff;fill-opacity:1;fill-rule:nonzero;stroke:none"
                 id="path96" />
            </g>
          </g>
        </g>
      </g>
      <g
         id="g98">
        <g
           id="g100">
          <g
             id="g102"
             clip-path="url(#clipPath106)">
            <g
               id="g108">
              <path
                 d="m 176.918,39.188 -0.004,-0.012 c -0.391,-0.879 -0.039,-1.914 0.926,-2.34 0.957,-0.426 1.949,0.008 2.336,0.887 l 0.004,0.011 c 0.39,0.879 0.039,1.914 -0.922,2.34 -0.961,0.422 -1.953,-0.008 -2.34,-0.886 m 2.691,-1.192 -0.004,-0.008 c -0.265,-0.609 -0.933,-0.918 -1.554,-0.64 -0.621,0.273 -0.836,0.957 -0.567,1.566 l 0.004,0.008 c 0.27,0.609 0.934,0.918 1.555,0.641 0.621,-0.274 0.836,-0.958 0.566,-1.567"
                 style="fill:#ffffff;fill-opacity:1;fill-rule:nonzero;stroke:none"
                 id="path110" />
            </g>
          </g>
        </g>
      </g>
      <path
         d="m 181.633,35.547 0.586,-0.129 0.617,2.805 1.754,-0.387 0.117,0.535 -2.344,0.512 z"
         style="fill:#ffffff;fill-opacity:1;fill-rule:nonzero;stroke:none"
         id="path112" />
      <path
         d="m 186.465,36.852 -1.477,-1.985 0.703,-0.043 1.047,1.457 0.875,-1.57 0.688,-0.039 -1.235,2.133 0.082,1.355 -0.605,0.039 z"
         style="fill:#ffffff;fill-opacity:1;fill-rule:nonzero;stroke:none"
         id="path114" />
      <path
         d="m 190.75,35.414 -1.078,-0.125 0.066,-0.555 2.754,0.321 -0.062,0.55 -1.078,-0.121 -0.332,2.84 -0.598,-0.07 z"
         style="fill:#ffffff;fill-opacity:1;fill-rule:nonzero;stroke:none"
         id="path116" />
      <path
         d="m 194.527,35.5 2.426,0.742 -0.16,0.512 -1.848,-0.566 -0.261,0.851 1.636,0.5 -0.156,0.516 -1.637,-0.504 -0.269,0.879 1.871,0.574 -0.156,0.516 -2.446,-0.754 z"
         style="fill:#ffffff;fill-opacity:1;fill-rule:nonzero;stroke:none"
         id="path118" />
      <g
         id="g120">
        <g
           id="g122">
          <g
             id="g124"
             clip-path="url(#clipPath128)">
            <g
               id="g130">
              <path
                 d="m 198.133,38.57 0.004,-0.007 c 0.465,-0.856 1.48,-1.211 2.39,-0.719 0.555,0.301 0.786,0.672 0.926,1.101 l -0.551,0.207 c -0.121,-0.351 -0.297,-0.64 -0.64,-0.828 -0.578,-0.308 -1.246,-0.058 -1.567,0.528 v 0.007 c -0.32,0.59 -0.164,1.297 0.414,1.606 0.368,0.199 0.688,0.176 1.075,0.074 l 0.152,0.527 c -0.488,0.161 -0.945,0.18 -1.504,-0.125 -0.879,-0.472 -1.164,-1.507 -0.699,-2.371"
                 style="fill:#ffffff;fill-opacity:1;fill-rule:nonzero;stroke:none"
                 id="path132" />
            </g>
          </g>
        </g>
      </g>
      <path
         d="m 203.457,39.758 0.461,0.383 -0.914,1.089 1.25,1.047 0.914,-1.086 0.461,0.383 -2.195,2.621 -0.461,-0.386 0.925,-1.102 -1.25,-1.047 -0.925,1.102 -0.461,-0.387 z"
         style="fill:#ffffff;fill-opacity:1;fill-rule:nonzero;stroke:none"
         id="path134" />
      <path
         d="m 207.445,43.461 0.344,0.437 -0.75,2.895 1.871,-1.445 0.36,0.465 -2.7,2.093 -0.308,-0.398 0.769,-2.977 -1.926,1.489 -0.359,-0.469 z"
         style="fill:#ffffff;fill-opacity:1;fill-rule:nonzero;stroke:none"
         id="path136" />
      <path
         d="m 210.449,47.793 0.289,0.527 -3,1.633 -0.285,-0.527 z"
         style="fill:#ffffff;fill-opacity:1;fill-rule:nonzero;stroke:none"
         id="path138" />
      <g
         id="g140">
        <g
           id="g142">
          <g
             id="g144"
             clip-path="url(#clipPath148)">
            <g
               id="g150">
              <path
                 d="m 209.664,53.953 c -0.289,-0.207 -0.516,-0.5 -0.644,-0.879 -0.34,-0.992 0.171,-1.945 1.085,-2.258 l 0.008,-0.003 c 0.91,-0.309 1.914,0.128 2.254,1.125 0.34,0.988 -0.176,1.941 -1.082,2.253 h -0.012 c -0.363,0.129 -0.75,0.133 -1.105,0.016 l -0.188,0.477 -0.531,-0.223 z m 0.231,-0.551 0.277,-0.714 0.543,0.222 -0.317,0.735 c 0.207,0.05 0.434,0.035 0.661,-0.043 l 0.007,-0.004 c 0.633,-0.215 0.997,-0.852 0.774,-1.493 -0.219,-0.64 -0.887,-0.914 -1.512,-0.695 h -0.012 c -0.625,0.215 -0.992,0.852 -0.769,1.496 0.074,0.211 0.195,0.379 0.348,0.496"
                 style="fill:#ffffff;fill-opacity:1;fill-rule:nonzero;stroke:none"
                 id="path152" />
            </g>
          </g>
        </g>
      </g>
      <g
         id="g154">
        <g
           id="g156">
          <g
             id="g158"
             clip-path="url(#clipPath162)">
            <g
               id="g164">
              <path
                 d="m 211.395,56.035 1.949,-0.234 0.07,0.597 -1.926,0.227 c -0.633,0.074 -0.933,0.438 -0.871,0.973 0.063,0.531 0.422,0.816 1.047,0.742 l 1.953,-0.231 0.071,0.598 -1.926,0.227 c -1.012,0.117 -1.59,-0.391 -1.692,-1.282 -0.105,-0.882 0.336,-1.504 1.325,-1.617"
                 style="fill:#ffffff;fill-opacity:1;fill-rule:nonzero;stroke:none"
                 id="path166" />
            </g>
          </g>
        </g>
      </g>
      <path
         d="m 213.707,61.02 -0.195,2.523 -0.535,-0.039 0.148,-1.926 -0.883,-0.07 -0.137,1.711 -0.535,-0.043 0.133,-1.711 -0.914,-0.07 -0.152,1.953 -0.535,-0.039 0.195,-2.555 z"
         style="fill:#ffffff;fill-opacity:1;fill-rule:nonzero;stroke:none"
         id="path168" />
      <path
         d="m 173.645,81.199 -0.489,-0.347 1.981,-2.789 0.488,0.347 z"
         style="fill:#ffffff;fill-opacity:1;fill-rule:nonzero;stroke:none"
         id="path170" />
      <path
         d="m 171.133,79.262 -0.395,-0.395 0.387,-2.961 -1.68,1.664 -0.414,-0.418 2.426,-2.41 0.352,0.356 -0.399,3.05 1.727,-1.71 0.418,0.417 z"
         style="fill:#ffffff;fill-opacity:1;fill-rule:nonzero;stroke:none"
         id="path172" />
      <g
         id="g174">
        <g
           id="g176">
          <g
             id="g178"
             clip-path="url(#clipPath182)">
            <g
               id="g184">
              <path
                 d="m 170.074,73.809 -0.558,-0.067 c 0.058,-0.426 0.011,-0.789 -0.223,-1.144 -0.203,-0.309 -0.473,-0.41 -0.688,-0.27 l -0.011,0.008 c -0.203,0.133 -0.239,0.32 -0.012,0.93 0.254,0.707 0.301,1.168 -0.227,1.511 l -0.007,0.004 c -0.489,0.324 -1.094,0.137 -1.469,-0.426 -0.274,-0.417 -0.367,-0.832 -0.324,-1.273 l 0.558,0.02 c -0.023,0.382 0.043,0.707 0.219,0.968 0.191,0.293 0.453,0.364 0.641,0.239 l 0.007,-0.004 c 0.223,-0.145 0.235,-0.34 0.004,-0.973 -0.25,-0.699 -0.242,-1.156 0.235,-1.469 l 0.004,-0.004 c 0.535,-0.347 1.129,-0.14 1.523,0.461 0.289,0.434 0.406,0.946 0.328,1.489"
                 style="fill:#ffffff;fill-opacity:1;fill-rule:nonzero;stroke:none"
                 id="path186" />
            </g>
          </g>
        </g>
      </g>
      <path
         d="m 165.387,70.379 0.426,0.996 -0.512,0.223 -1.094,-2.551 0.512,-0.219 0.426,0.992 2.632,-1.129 0.235,0.559 z"
         style="fill:#ffffff;fill-opacity:1;fill-rule:nonzero;stroke:none"
         id="path188" />
      <path
         d="m 163.645,67.199 -0.157,-0.582 3.297,-0.89 0.156,0.578 z"
         style="fill:#ffffff;fill-opacity:1;fill-rule:nonzero;stroke:none"
         id="path190" />
      <path
         d="m 163.457,63.598 0.133,1.078 -0.547,0.066 -0.344,-2.75 0.551,-0.07 0.133,1.078 2.84,-0.355 0.074,0.601 z"
         style="fill:#ffffff;fill-opacity:1;fill-rule:nonzero;stroke:none"
         id="path192" />
      <g
         id="g194">
        <g
           id="g196">
          <g
             id="g198"
             clip-path="url(#clipPath202)">
            <g
               id="g204">
              <path
                 d="m 164.594,60.152 -1.965,-0.129 0.043,-0.597 1.937,0.121 c 0.633,0.043 0.996,-0.258 1.032,-0.797 0.035,-0.531 -0.266,-0.879 -0.895,-0.918 l -1.965,-0.129 0.039,-0.598 1.934,0.125 c 1.016,0.067 1.492,0.672 1.434,1.567 -0.055,0.883 -0.602,1.418 -1.594,1.355"
                 style="fill:#ffffff;fill-opacity:1;fill-rule:nonzero;stroke:none"
                 id="path206" />
            </g>
          </g>
        </g>
      </g>
      <path
         d="m 163.949,54.246 -0.269,1.051 -0.539,-0.141 0.695,-2.683 0.539,0.14 -0.273,1.047 2.769,0.719 -0.152,0.586 z"
         style="fill:#ffffff;fill-opacity:1;fill-rule:nonzero;stroke:none"
         id="path208" />
      <g
         id="g210">
        <g
           id="g212">
          <g
             id="g214"
             clip-path="url(#clipPath218)">
            <g
               id="g220">
              <path
                 d="m 180.57,80.914 1.317,0.375 c 1.371,0.387 1.859,1.258 1.57,2.274 l -0.004,0.011 c -0.289,1.02 -1.191,1.543 -2.586,1.145 l -1.277,-0.36 z m 0.649,2.82 c 0.527,0.149 0.929,0.032 1.07,-0.468 v -0.008 c 0.145,-0.496 -0.137,-0.809 -0.66,-0.961 l -0.195,-0.055 -0.407,1.438 z"
                 style="fill:#ffffff;fill-opacity:1;fill-rule:nonzero;stroke:none"
                 id="path222" />
            </g>
          </g>
        </g>
      </g>
      <path
         d="m 185.637,82.113 3.047,0.149 -0.047,0.98 -1.875,-0.09 -0.016,0.364 1.746,0.086 -0.043,0.863 -1.746,-0.086 -0.019,0.387 1.902,0.093 -0.051,0.981 -3.078,-0.152 z"
         style="fill:#ffffff;fill-opacity:1;fill-rule:nonzero;stroke:none"
         id="path224" />
      <g
         id="g226">
        <g
           id="g228">
          <g
             id="g230"
             clip-path="url(#clipPath234)">
            <g
               id="g236">
              <path
                 d="m 193.207,81.707 1.539,-0.473 c 0.91,-0.277 1.656,-0.062 1.902,0.75 l 0.004,0.012 c 0.254,0.828 -0.242,1.457 -1.168,1.742 l -0.371,0.114 0.282,0.929 -1.145,0.348 z m 1.965,1.234 c 0.293,-0.089 0.449,-0.281 0.375,-0.527 l -0.004,-0.012 c -0.078,-0.246 -0.297,-0.32 -0.602,-0.226 l -0.312,0.097 0.234,0.762 z"
                 style="fill:#ffffff;fill-opacity:1;fill-rule:nonzero;stroke:none"
                 id="path238" />
            </g>
          </g>
        </g>
      </g>
      <path
         d="m 198.543,79.629 1.031,-0.586 3.094,2.391 -1.129,0.644 -0.402,-0.328 -1.09,0.621 0.078,0.508 -1.113,0.633 z m 1.914,1.531 -0.711,-0.594 0.141,0.918 z"
         style="fill:#ffffff;fill-opacity:1;fill-rule:nonzero;stroke:none"
         id="path240" />
      <g
         id="g242">
        <g
           id="g244">
          <g
             id="g246"
             clip-path="url(#clipPath250)">
            <g
               id="g252">
              <path
                 d="m 202.027,77.422 1.278,-1.195 c 0.465,-0.434 0.871,-0.594 1.226,-0.582 0.301,0.011 0.567,0.128 0.817,0.398 l 0.007,0.008 c 0.356,0.383 0.403,0.832 0.231,1.285 l 1.441,0.316 -1,0.934 -1.191,-0.289 -0.008,0.008 -0.18,0.172 0.7,0.746 -0.875,0.816 z m 2.414,0.074 c 0.211,-0.195 0.254,-0.406 0.102,-0.566 l -0.008,-0.008 c -0.156,-0.168 -0.363,-0.129 -0.566,0.058 l -0.383,0.356 0.48,0.512 z"
                 style="fill:#ffffff;fill-opacity:1;fill-rule:nonzero;stroke:none"
                 id="path254" />
            </g>
          </g>
        </g>
      </g>
      <path
         d="m 205.613,73.695 0.707,-0.965 2.891,2.118 -0.707,0.965 z"
         style="fill:#ffffff;fill-opacity:1;fill-rule:nonzero;stroke:none"
         id="path256" />
      <g
         id="g258">
        <g
           id="g260">
          <g
             id="g262"
             clip-path="url(#clipPath266)">
            <g
               id="g268">
              <path
                 d="m 209.957,72.777 -0.406,-0.91 c 0.441,-0.219 0.746,-0.566 0.929,-0.941 0.094,-0.196 0.083,-0.301 -0.007,-0.344 l -0.008,-0.008 c -0.09,-0.043 -0.192,0.035 -0.426,0.344 -0.5,0.652 -1.019,1.187 -1.695,0.855 l -0.008,-0.003 c -0.613,-0.301 -0.856,-1.004 -0.422,-1.895 0.301,-0.621 0.672,-1.008 1.145,-1.238 l 0.476,0.879 c -0.371,0.195 -0.644,0.511 -0.789,0.812 -0.078,0.156 -0.062,0.258 0.02,0.297 l 0.007,0.004 c 0.09,0.043 0.184,-0.016 0.415,-0.328 0.554,-0.746 1.062,-1.184 1.71,-0.867 l 0.008,0.004 c 0.676,0.328 0.817,1.085 0.399,1.953 -0.321,0.652 -0.789,1.148 -1.348,1.386"
                 style="fill:#ffffff;fill-opacity:1;fill-rule:nonzero;stroke:none"
                 id="path270" />
            </g>
          </g>
        </g>
      </g>
      <path
         d="m 222.762,40.941 h 1.664 v 9.469 h -1.664 z"
         style="fill:#ffffff;fill-opacity:1;fill-rule:nonzero;stroke:none"
         id="path272" />
      <path
         d="m 229.105,40.941 h 1.54 l 5.074,6.547 v -6.547 h 1.636 v 9.469 h -1.394 l -5.219,-6.734 v 6.734 h -1.637 z"
         style="fill:#ffffff;fill-opacity:1;fill-rule:nonzero;stroke:none"
         id="path274" />
      <g
         id="g276">
        <g
           id="g278">
          <g
             id="g280"
             clip-path="url(#clipPath284)">
            <g
               id="g286">
              <path
                 d="m 245.598,44.918 c -1.817,-0.434 -2.246,-0.77 -2.246,-1.5 0,-0.625 0.566,-1.137 1.543,-1.137 0.863,0 1.714,0.34 2.57,0.973 l 0.89,-1.258 c -0.96,-0.773 -2.054,-1.191 -3.433,-1.191 -1.883,0 -3.234,1.136 -3.234,2.761 0,1.743 1.136,2.352 3.152,2.84 1.758,0.407 2.137,0.785 2.137,1.461 0,0.715 -0.653,1.203 -1.68,1.203 -1.176,0 -2.078,-0.445 -2.988,-1.23 l -1,1.191 c 1.132,1.016 2.504,1.516 3.949,1.516 1.988,0 3.383,-1.07 3.383,-2.84 0,-1.57 -1.043,-2.301 -3.043,-2.789"
                 style="fill:#ffffff;fill-opacity:1;fill-rule:nonzero;stroke:none"
                 id="path288" />
            </g>
          </g>
        </g>
      </g>
      <path
         d="m 254.621,42.484 h -3 v -1.543 h 7.684 v 1.543 h -3.004 v 7.926 h -1.68 z"
         style="fill:#ffffff;fill-opacity:1;fill-rule:nonzero;stroke:none"
         id="path290" />
      <path
         d="m 262.969,40.941 h 1.664 v 9.469 h -1.664 z"
         style="fill:#ffffff;fill-opacity:1;fill-rule:nonzero;stroke:none"
         id="path292" />
      <path
         d="m 271.301,42.484 h -3.004 v -1.543 h 7.683 v 1.543 h -3.003 v 7.926 h -1.676 z"
         style="fill:#ffffff;fill-opacity:1;fill-rule:nonzero;stroke:none"
         id="path294" />
      <g
         id="g296">
        <g
           id="g298">
          <g
             id="g300"
             clip-path="url(#clipPath304)">
            <g
               id="g306">
              <path
                 d="m 279.316,46.391 v -5.45 h 1.664 v 5.383 c 0,1.758 0.907,2.707 2.395,2.707 1.473,0 2.379,-0.89 2.379,-2.64 v -5.45 h 1.664 v 5.372 c 0,2.828 -1.598,4.246 -4.074,4.246 -2.461,0 -4.028,-1.418 -4.028,-4.168"
                 style="fill:#ffffff;fill-opacity:1;fill-rule:nonzero;stroke:none"
                 id="path308" />
            </g>
          </g>
        </g>
      </g>
      <path
         d="m 293.758,42.484 h -3.004 v -1.543 h 7.684 v 1.543 h -3 v 7.926 h -1.68 z"
         style="fill:#ffffff;fill-opacity:1;fill-rule:nonzero;stroke:none"
         id="path310" />
      <g
         id="g312">
        <g
           id="g314">
          <g
             id="g316"
             clip-path="url(#clipPath320)">
            <g
               id="g322">
              <path
                 d="m 226.492,55.488 h -3.73 v 9.469 h 1.664 v -3.043 h 1.879 c 2.082,0 3.785,-1.125 3.785,-3.246 0,-1.91 -1.391,-3.18 -3.598,-3.18 m -0.133,4.922 h -1.933 V 57 h 1.933 c 1.243,0 2.043,0.598 2.043,1.707 0,0.988 -0.785,1.703 -2.043,1.703"
                 style="fill:#ffffff;fill-opacity:1;fill-rule:nonzero;stroke:none"
                 id="path324" />
            </g>
          </g>
        </g>
      </g>
      <g
         id="g326">
        <g
           id="g328">
          <g
             id="g330"
             clip-path="url(#clipPath334)">
            <g
               id="g336">
              <path
                 d="m 238.066,55.324 c -2.906,0 -4.964,2.246 -4.964,4.91 0,2.664 2.031,4.887 4.937,4.887 2.91,0 4.969,-2.246 4.969,-4.914 0,-2.664 -2.031,-4.883 -4.942,-4.883 m 0,8.266 c -1.878,0 -3.218,-1.543 -3.218,-3.383 0,-1.836 1.312,-3.352 3.191,-3.352 1.883,0 3.219,1.54 3.219,3.379 0,1.84 -1.309,3.356 -3.192,3.356"
                 style="fill:#ffffff;fill-opacity:1;fill-rule:nonzero;stroke:none"
                 id="path338" />
            </g>
          </g>
        </g>
      </g>
      <path
         d="m 246.746,55.488 h 1.668 v 7.953 h 4.977 v 1.516 h -6.645 z"
         style="fill:#ffffff;fill-opacity:1;fill-rule:nonzero;stroke:none"
         id="path340" />
      <path
         d="m 257.879,61.223 -3.766,-5.735 h 1.961 l 2.656,4.192 2.676,-4.192 h 1.91 l -3.761,5.696 v 3.773 h -1.676 z"
         style="fill:#ffffff;fill-opacity:1;fill-rule:nonzero;stroke:none"
         id="path342" />
      <path
         d="m 268.914,57.031 h -3.004 v -1.543 h 7.684 v 1.543 h -3.004 v 7.926 h -1.676 z"
         style="fill:#ffffff;fill-opacity:1;fill-rule:nonzero;stroke:none"
         id="path344" />
      <path
         d="m 277.25,55.488 h 7.02 v 1.489 h -5.356 v 2.461 h 4.746 v 1.488 h -4.746 v 2.543 h 5.422 v 1.488 h -7.086 z"
         style="fill:#ffffff;fill-opacity:1;fill-rule:nonzero;stroke:none"
         id="path346" />
      <g
         id="g348">
        <g
           id="g350">
          <g
             id="g352"
             clip-path="url(#clipPath356)">
            <g
               id="g358">
              <path
                 d="m 295.551,62.359 c -0.813,0.758 -1.559,1.231 -2.723,1.231 -1.812,0 -3.121,-1.527 -3.121,-3.379 0,-1.856 1.309,-3.359 3.121,-3.359 1.086,0 1.895,0.476 2.656,1.179 l 1.067,-1.234 c -0.906,-0.863 -1.961,-1.469 -3.707,-1.469 -2.867,0 -4.883,2.215 -4.883,4.906 0,2.719 2.059,4.887 4.816,4.887 1.77,0 2.852,-0.652 3.84,-1.68 z"
                 style="fill:#ffffff;fill-opacity:1;fill-rule:nonzero;stroke:none"
                 id="path360" />
            </g>
          </g>
        </g>
      </g>
      <path
         d="m 300.262,55.488 h 1.664 v 3.938 h 4.515 v -3.938 h 1.664 v 9.469 h -1.664 v -3.992 h -4.515 v 3.992 h -1.664 z"
         style="fill:#ffffff;fill-opacity:1;fill-rule:nonzero;stroke:none"
         id="path362" />
      <path
         d="m 312.863,55.488 h 1.543 l 5.071,6.547 v -6.547 h 1.64 v 9.469 h -1.394 L 314.5,58.219 v 6.738 h -1.637 z"
         style="fill:#ffffff;fill-opacity:1;fill-rule:nonzero;stroke:none"
         id="path364" />
      <path
         d="m 325.883,55.488 h 1.664 v 9.469 h -1.664 z"
         style="fill:#ffffff;fill-opacity:1;fill-rule:nonzero;stroke:none"
         id="path366" />
      <g
         id="g368">
        <g
           id="g370">
          <g
             id="g372"
             clip-path="url(#clipPath376)">
            <g
               id="g378">
              <path
                 d="m 340.238,63.129 c 0.625,-0.824 0.961,-1.852 0.961,-2.922 0,-2.664 -2.031,-4.883 -4.937,-4.883 -2.91,0 -4.965,2.246 -4.965,4.91 0,2.664 2.031,4.887 4.937,4.887 1.11,0 2.082,-0.328 2.883,-0.894 l 1.137,1.015 1.066,-1.191 z m -1.269,-1.109 -1.637,-1.489 -1.07,1.219 1.621,1.379 c -0.445,0.285 -1,0.461 -1.621,0.461 -1.879,0 -3.219,-1.539 -3.219,-3.383 0,-1.836 1.309,-3.352 3.191,-3.352 1.883,0 3.223,1.54 3.223,3.379 0,0.664 -0.164,1.289 -0.488,1.786"
                 style="fill:#ffffff;fill-opacity:1;fill-rule:nonzero;stroke:none"
                 id="path380" />
            </g>
          </g>
        </g>
      </g>
      <g
         id="g382">
        <g
           id="g384">
          <g
             id="g386"
             clip-path="url(#clipPath390)">
            <g
               id="g392">
              <path
                 d="m 344.965,60.938 v -5.45 h 1.664 v 5.383 c 0,1.758 0.902,2.707 2.394,2.707 1.473,0 2.379,-0.894 2.379,-2.64 v -5.45 h 1.664 v 5.371 c 0,2.825 -1.597,4.246 -4.074,4.246 -2.461,0 -4.027,-1.421 -4.027,-4.167"
                 style="fill:#ffffff;fill-opacity:1;fill-rule:nonzero;stroke:none"
                 id="path394" />
            </g>
          </g>
        </g>
      </g>
      <path
         d="m 357.164,55.488 h 7.02 v 1.489 h -5.356 v 2.461 h 4.746 v 1.488 h -4.746 v 2.543 h 5.426 v 1.488 h -7.09 z"
         style="fill:#ffffff;fill-opacity:1;fill-rule:nonzero;stroke:none"
         id="path396" />
      <g
         id="g398">
        <g
           id="g400">
          <g
             id="g402"
             clip-path="url(#clipPath406)">
            <g
               id="g408">
              <path
                 d="m 226.414,70.031 h -3.656 v 9.473 h 3.601 c 3.411,0 5.399,-2.043 5.399,-4.777 0,-2.731 -1.965,-4.696 -5.344,-4.696 m 0.039,7.145 h -1.07 v -4.817 h 1.07 c 1.57,0 2.61,0.895 2.61,2.407 0,1.531 -1.04,2.41 -2.61,2.41"
                 style="fill:#ffffff;fill-opacity:1;fill-rule:nonzero;stroke:none"
                 id="path410" />
            </g>
          </g>
        </g>
      </g>
      <path
         d="m 236.086,70.031 h 7.617 v 2.235 h -5.019 v 1.433 h 4.546 v 2.071 h -4.546 v 1.5 h 5.089 v 2.234 h -7.687 z"
         style="fill:#ffffff;fill-opacity:1;fill-rule:nonzero;stroke:none"
         id="path412" />
      <g
         id="g414">
        <g
           id="g416">
          <g
             id="g418"
             clip-path="url(#clipPath422)">
            <g
               id="g424">
              <path
                 d="m 259.043,70.031 h -4.055 v 9.473 h 2.621 v -2.707 h 1.301 c 2.352,0 4.07,-1.192 4.07,-3.422 0,-2.098 -1.542,-3.344 -3.937,-3.344 m -0.188,4.711 h -1.246 v -2.504 h 1.231 c 0.949,0 1.515,0.446 1.515,1.258 0,0.742 -0.566,1.246 -1.5,1.246"
                 style="fill:#ffffff;fill-opacity:1;fill-rule:nonzero;stroke:none"
                 id="path426" />
            </g>
          </g>
        </g>
      </g>
      <path
         d="m 269.223,69.965 h 2.531 l 4.031,9.539 h -2.812 l -0.692,-1.691 h -3.652 l -0.676,1.691 h -2.762 z m 2.3,5.805 -1.054,-2.692 -1.071,2.692 z"
         style="fill:#ffffff;fill-opacity:1;fill-rule:nonzero;stroke:none"
         id="path428" />
      <g
         id="g430">
        <g
           id="g432">
          <g
             id="g434"
             clip-path="url(#clipPath438)">
            <g
               id="g440">
              <path
                 d="m 285.797,76.203 c 1.176,-0.5 1.945,-1.476 1.945,-2.922 0,-2.093 -1.457,-3.246 -3.922,-3.246 h -4.476 V 79.5 h 2.625 v -2.863 h 1.148 l 1.906,2.863 h 3.032 z m -2.098,-1.625 h -1.73 v -2.273 h 1.715 c 0.879,0 1.421,0.394 1.421,1.136 0,0.692 -0.511,1.137 -1.406,1.137"
                 style="fill:#ffffff;fill-opacity:1;fill-rule:nonzero;stroke:none"
                 id="path442" />
            </g>
          </g>
        </g>
      </g>
      <path
         d="m 292.441,70.031 h 2.641 V 79.5 h -2.641 z"
         style="fill:#ffffff;fill-opacity:1;fill-rule:nonzero;stroke:none"
         id="path444" />
      <g
         id="g446">
        <g
           id="g448">
          <g
             id="g450"
             clip-path="url(#clipPath454)">
            <g
               id="g456">
              <path
                 d="m 303.809,73.605 c -1.313,-0.296 -1.637,-0.5 -1.637,-0.933 0,-0.34 0.312,-0.621 0.945,-0.621 0.84,0 1.785,0.32 2.653,0.929 l 1.312,-1.851 c -1.027,-0.824 -2.285,-1.258 -3.898,-1.258 -2.27,0 -3.664,1.285 -3.664,3.043 0,1.949 1.554,2.531 3.57,2.988 1.285,0.297 1.598,0.532 1.598,0.922 0,0.406 -0.379,0.664 -1.083,0.664 -1.097,0 -2.14,-0.394 -3.07,-1.14 l -1.461,1.75 c 1.164,1.039 2.758,1.566 4.438,1.566 2.297,0 3.828,-1.164 3.828,-3.098 0,-1.769 -1.356,-2.488 -3.531,-2.961"
                 style="fill:#ffffff;fill-opacity:1;fill-rule:nonzero;stroke:none"
                 id="path458" />
            </g>
          </g>
        </g>
      </g>
      <path
         d="M 0.402,11.875 H 96.824 V 108.82 H 0.402 Z"
         style="fill:#ffffff;fill-opacity:1;fill-rule:nonzero;stroke:none"
         id="path460" />
      <path
         d="M 3.254,14.637 H 93.973 V 77.051 H 3.254 Z"
         style="fill:#231f20;fill-opacity:1;fill-rule:nonzero;stroke:none"
         id="path462" />
      <path
         d="M 93.895,105.23 93.859,81.254 h -4.07 c -0.422,0.566 -0.137,3.109 -1.422,3.594 -4.359,-0.977 -0.387,-1.473 -1.883,-3.594 -0.187,0.012 -1.964,0 -2.152,0 0.203,0.027 0.961,0.883 -0.176,1.859 -1.527,10.047 1.278,14.145 -0.14,22.114 z"
         style="fill:#b50c36;fill-opacity:1;fill-rule:nonzero;stroke:none"
         id="path464" />
      <path
         d="m 29.016,88.68 c 1.632,-0.77 1.644,-2.473 1.722,-3.59 -0.496,-0.555 -2.429,-0.59 -3.207,-0.449 -1.074,0.898 -0.14,2.504 -0.781,3.547 0.422,0.902 1.559,0.273 2.266,0.492"
         style="fill:#b50c36;fill-opacity:1;fill-rule:nonzero;stroke:none"
         id="path466" />
      <path
         d="m 38.34,100.574 0.484,0.141 c 0.442,0.09 1.043,0.109 1.504,-0.086 -0.121,-0.32 -0.285,-0.625 -0.48,-0.875 -0.532,0.254 -1.035,0.523 -1.508,0.82"
         style="fill:#b50c36;fill-opacity:1;fill-rule:nonzero;stroke:none"
         id="path468" />
      <path
         d="m 38.469,89.727 c -0.985,-2.61 2.57,-3.676 3.941,-5.27 l 1.84,1.023 c -0.199,1.786 -3.461,2.114 -3.262,4.047 0.34,0.289 0.637,0.778 1.082,0.871 0.153,0.481 -0.25,0.774 -0.539,1.063 -1.433,0.578 -2.168,-0.82 -3.062,-1.734 m 1.859,10.902 c 0.387,0.965 0.434,2.156 -0.027,2.91 l -4.762,0.168 v -0.609 c 0.836,-1.102 1.762,-1.879 2.801,-2.524 l -0.957,-0.265 c -1.36,-0.93 1.84,-2.266 2.336,-2.629 l 1.289,2.058 c -0.039,0.465 -0.317,0.735 -0.68,0.891 m -9.469,2.285 c -1.023,-1.769 0.172,-4.719 0.454,-6.406 0.242,-0.238 0.492,-0.567 0.906,-0.438 0.285,0.926 -1.071,1.528 -0.164,2.325 0.941,-0.278 2.175,0.57 3.117,-0.157 -0.492,-0.8 -1.52,-0.398 -2.215,-0.722 v -0.438 l 2.098,-0.129 c 0.328,0.446 1.812,0.867 1.484,1.715 -1.398,1.973 -3.789,3.125 -5.68,4.25 m -1.652,-9.976 c 0.219,-0.364 0.648,-0.149 0.957,-0.208 0.113,0.887 1.496,-0.21 0.961,0.946 h -0.152 c -0.586,0.308 -1.547,0 -1.766,-0.738 m 2.723,0.519 c 0.711,-0.414 1.703,-0.348 1.539,1.02 H 32.316 C 32.094,94.203 31.762,93.93 31.93,93.457 m 0.867,-9.637 c 0.199,-0.32 0.488,-0.929 1.066,-0.73 -0.047,0.484 -0.293,1.375 -1.066,1.012 z m 1.351,10.797 c 1.106,0.242 2.305,-0.601 3.118,0.281 -0.364,0.77 -0.364,2.051 -1.641,1.329 -0.57,-0.446 -1.852,-0.247 -1.762,-1.329 z m 0.122,-10.07 c 0.082,-0.926 1.191,-0.563 1.808,-0.848 l 0.125,0.403 c -0.578,0.445 -0.988,1.41 -1.933,1.046 z m 3.289,7.012 c -0.704,0.48 -1.887,0.316 -2.672,0.152 0.203,-0.316 0.25,-0.684 0.285,-1.043 0.5,-0.402 1.031,-1.285 1.933,-1.008 0.372,0.52 0.536,1.172 0.454,1.899 m -0.02,-7.321 -0.199,2.516 c -0.102,0.394 -0.402,1.184 -1.11,0.887 -0.859,0.199 -0.41,-0.844 -0.507,-1.231 0.757,-0.64 0.965,-2.027 1.816,-2.172 m -7.996,7.473 H 28.93 c -0.864,-0.316 -2.758,-0.758 -2.832,-1.762 1.191,0.317 2.254,0.918 3.445,1.324 z m 14.836,2.621 c -1.149,0.039 -2.141,1.695 -3.125,1.008 0.578,-1.613 1.848,-2.938 2.383,-4.508 0.945,-2.144 2.488,-6.812 1.828,-9.594 h -4.41 c -1.434,0.407 -0.371,4.117 -1.856,4.36 -0.41,-1.016 -0.289,-2.223 -1.453,-4.332 h -2.383 c 0.18,1.589 -0.062,1.668 -0.191,1.824 -0.82,0.047 -0.738,-1.242 -1.766,-0.559 -0.902,-0.164 -1.144,1.289 -2.093,1.008 -0.321,-0.769 -1.231,-1.769 -2.219,-1.172 0.859,1.86 5.176,2.625 3.125,5.68 -0.414,0.887 -0.082,2.176 -1.188,2.621 -1.937,-0.523 -3.742,-1.25 -5.672,-1.734 0.204,0.726 -0.332,1.734 -0.129,2.461 2.059,0.277 2.676,2.418 4.438,3.058 0.375,0.285 0.535,0.602 0.457,1.051 -1.238,0.523 -2.551,-0.566 -3.699,-1.051 -0.289,0.121 -0.133,0.406 -0.168,0.602 1.066,1.254 4.519,0.726 3.41,3.34 -0.945,2.14 -0.738,5.687 -3.98,5.972 -0.293,0.641 0.484,0.594 0.738,0.883 2.789,0.281 5.668,-2.383 8.008,-0.164 0.781,0 1.769,-0.488 2.386,0.144 h 7.008 c 1.32,-2.546 0.297,-4.179 0.422,-6.519 0.156,-0.594 -1.637,-1.195 -2.996,-0.871 -0.242,-0.164 -0.082,-0.485 -0.117,-0.762 0.898,-1.051 4.515,0.52 3.695,-2.023 0,-0.196 0,-0.684 -0.453,-0.723"
         style="fill:#b50c36;fill-opacity:1;fill-rule:nonzero;stroke:none"
         id="path470" />
      <path
         d="M 10.141,83.84 C 5.75,83.559 3.395,84.008 3.336,83.992 v 3.481 h 0.82 c 0.989,0.297 1.66,0.316 2.653,0.316 3.687,0.375 6.789,-0.164 10.445,-0.367 -0.414,-0.121 -0.832,-0.223 -1.207,-0.195 -0.621,-0.469 -1.012,-0.774 -0.867,-1.516 0.968,-1.035 2.746,-0.18 3.883,-0.797 1.003,0.387 0.335,1.481 0.574,2.16 -0.102,0.192 -0.211,0.176 -0.328,0.281 1.121,-0.007 2.312,0.028 3.597,0.145 V 83.895 C 17.469,83.547 13.633,84.051 10.141,83.84"
         style="fill:#b50c36;fill-opacity:1;fill-rule:nonzero;stroke:none"
         id="path472" />
      <path
         d="m 50.988,91.078 c -0.793,0.203 -1.8,0.36 -2.519,-0.113 0.363,-0.813 1.238,-0.328 1.847,-0.453 0.211,0.285 0.645,-0.039 0.672,0.566 m 2.61,8.567 v 1.062 c -1.414,0.488 -2.723,2.027 -4.266,1.348 v -0.961 c 0.617,-0.289 1.332,0.578 1.856,-0.774 0.843,0.102 1.535,-1.148 2.41,-0.675 m -1.207,-14.477 -0.664,0.746 c -0.262,0 -0.731,-0.797 -0.805,-1.117 0.207,-0.242 1.363,0.09 1.469,0.371 m 0.058,1.727 c 0.328,0.242 1.024,0.261 0.664,1.168 -0.41,0.367 -0.718,-0.59 -1.101,-0.708 z m 0.789,9.8 v 1.231 c -0.394,-0.067 -0.922,0.203 -1.218,-0.207 0.082,-0.953 0.824,-0.887 1.218,-1.024 m 0.446,-3.218 h -2.289 v -0.84 h 2.289 z m 1.289,10.355 c -0.543,1.266 -1.543,0.344 -2.235,0 -0.57,-0.23 -1.031,1.441 -1.566,0.231 -0.027,-0.29 0.129,-0.407 0.18,-0.637 1.257,-0.863 2.562,-0.168 3.621,0.406 m -6.86,-5.457 h 1.567 v 0.438 h -1.567 z m 2.684,-9.891 c -0.492,0.383 -1.176,0.559 -1.742,0.625 l -0.34,-1.132 c 0.648,-0.055 1.832,-0.379 2.082,0.507 m -1.942,-1.757 h 1.208 v 0.437 h -1.208 z m 7.411,0.925 v 1.356 c -0.633,-0.074 -1.395,0.207 -1.946,-0.219 0.274,-0.984 1.313,-0.922 1.946,-1.137 m -4.914,-5.031 c 1.769,0.442 3.628,0.652 5.507,0.727 v -2.094 h -7.863 c -0.012,1.66 -1.269,3.98 -1.269,3.98 0.691,-0.007 1.359,0.039 1.968,0.332 v 0.438 c -0.64,-0.16 -1.3,-0.242 -1.968,-0.281 v 6.804 h 0.867 c 0.051,0.161 0.207,0.246 0.172,0.442 l -0.172,0.328 h -0.867 v 0.824 c 0.293,0.02 0.605,0.098 0.867,0.02 0.015,0.039 0.031,0.078 0.054,0.113 0.411,0.074 0.7,0.617 1.207,0.332 v 0.437 h -0.914 c -0.175,0 -0.398,-0.05 -0.535,-0.214 -0.215,0.086 -0.445,0.121 -0.679,0.089 v 0.625 c 0.691,-0.257 1.593,0.036 2.253,0.067 0.079,0.164 0.231,0.246 0.18,0.449 l -0.18,0.316 c -0.687,-0.25 -1.539,-0.117 -2.253,-0.191 v 5.266 c 0.246,0.047 0.496,0.117 0.691,0.164 0.07,0.199 0.277,0.32 0.277,0.558 -0.265,0.161 -0.617,0.2 -0.968,0.129 v 2.946 h 9.132 v -2.946 c -0.351,0.071 -1.218,0.11 -1.484,-0.047 0,-0.242 0.91,-2.089 1.16,-2.136 l 0.324,-3.934 c -0.718,0.074 -1.562,-0.059 -2.25,0.191 L 54.43,96.039 c -0.047,-0.203 0.105,-0.285 0.179,-0.449 0.668,-0.031 1.571,-0.324 2.25,-0.067 v -0.625 c -0.375,0.047 -0.773,-0.054 -1.043,-0.312 -0.027,-0.207 0.129,-0.285 0.184,-0.445 0.262,0.078 0.57,0 0.859,-0.02 V 93.297 H 56 L 55.816,92.969 C 55.789,92.773 55.945,92.688 56,92.527 h 0.859 v -6.804 c -0.664,0.039 -1.332,0.121 -1.968,0.281 v -0.438 c 0.609,-0.293 1.289,-0.339 1.968,-0.332 v -1.339 c -1.625,-0.09 -3.238,-0.258 -4.765,-0.387 -0.387,-0.207 -0.949,-0.16 -1.211,-0.567 0.105,-0.277 0.289,-0.32 0.469,-0.32"
         style="fill:#b50c36;fill-opacity:1;fill-rule:nonzero;stroke:none"
         id="path474" />
      <path
         d="m 10.871,82.73 c 3.883,0 8.145,-0.351 12.078,-0.046 V 81.203 H 3.293 c -0.02,0.617 0,1.574 0,1.574 2.461,-0.402 5.52,-0.047 7.578,-0.047"
         style="fill:#b50c36;fill-opacity:1;fill-rule:nonzero;stroke:none"
         id="path476" />
      <path
         d="m 7.855,89.863 c -1.101,0 -2.296,-1.074 -3.398,-1.429 H 3.906 L 3.352,88.555 3.328,105.227 H 22.973 V 88.363 c -5.125,-0.59 -9.594,1.891 -15.118,1.5"
         style="fill:#b50c36;fill-opacity:1;fill-rule:nonzero;stroke:none"
         id="path478" />
      <path
         d="m 79.02,92.246 c -0.45,-0.043 -1.461,-0.141 -1.547,-0.785 -0.102,-0.699 -0.141,-1.676 1.418,-1.391 1.156,0.301 1.621,1.903 0.129,2.176 M 76.238,101 c -0.488,0.551 -0.351,3.016 -1.535,1.738 -1.262,-3.32 0.445,-5.605 0.731,-8.554 0.738,-0.805 1.55,-1.098 2.011,-0.895 0.114,0.024 0.731,1.5 0.836,1.524 0.137,2.031 -1.093,2.128 0.094,5.492 -0.32,0.55 -1.762,0.269 -2.137,0.695 M 73.305,90.25 c 0.246,-0.328 1.109,-0.785 1.57,-0.707 0.488,0.203 0.82,1.133 0.617,1.777 -0.047,0.524 -0.617,0.403 -1.031,0.403 -0.578,-0.203 -1.324,-0.789 -1.156,-1.473 m -1.668,-1.266 c -0.168,0.688 -1.024,1.489 -2.09,1.286 -0.539,-0.407 -0.359,-1.172 -0.484,-1.735 0.125,-0.402 1.308,-0.726 1.804,-0.601 0.207,0.281 0.93,0.648 0.77,1.05 M 69.23,85.598 c 0.243,0.972 -1.089,1.144 -1.589,1.195 -0.559,-0.293 -1.266,-1.379 -0.895,-2.289 0.375,-0.371 0.684,-0.852 1.367,-0.664 0.364,0.601 1.422,0.906 1.117,1.758 m -2.738,16.168 v -1.493 l -1.133,-1.07 -0.48,-1.605 c -0.555,-2.453 0.082,-5.301 0.523,-6.223 -0.019,0.016 -0.023,0.02 -0.043,0.027 -0.41,-0.121 -1.066,0.243 -1.316,-0.277 0.375,-0.609 -0.16,-1.535 0.457,-2.055 0.449,-0.086 1.566,-0.062 1.852,0.258 -0.028,0.5 -0.051,1.215 -0.504,1.715 0.472,-0.098 0.992,-0.016 1.359,0.352 -0.121,4.695 0.336,7.867 0.719,12.171 z M 62.035,86.273 c -0.789,-0.675 -1.277,-1.453 -1.078,-2.515 0.492,-1.16 2.164,-0.774 2.856,-0.289 0.527,0.777 1.48,1.695 0.019,2.105 0.148,1.871 -1.215,1.574 -1.797,0.699 m 19.719,7.743 c -1.149,-2.786 1.469,-12.051 -2.762,-12.813 -0.465,-0.066 -0.855,0.129 -1.222,0.434 0.742,0.527 1.3,1.316 1.425,2.211 -0.988,2.175 -3.039,-0.485 -4.437,0.246 v 1.769 c -0.578,0.481 -0.992,1.125 -1.805,0.883 -0.5,-0.562 -1.156,-0.965 -0.91,-1.766 0.5,-1.046 1.645,-0.644 2.383,-1.132 C 74.41,83.82 74.395,83.797 74.383,83.773 72.977,83.43 73.16,81.238 70.785,81.238 H 66.25 c -2.105,0.649 -4.699,1.852 -7.125,0.016 l 0.457,2.988 0.301,1.024 -0.008,0.89 1.07,0.934 -1.113,0.949 0.379,2.297 c 0.84,0.25 1.742,0.293 1.781,1.059 -0.152,1.257 -1.094,2.695 -1.129,3.996 -0.054,1.605 0.836,8.234 0.813,9.836 0.867,-0.082 5.012,-0.25 5.859,-0.68 0.008,0.031 1.156,0.644 1.156,0.68 1.473,0.14 3.399,0.507 2.918,-2.047 L 70.547,96.387 C 69.281,92.906 71.609,92.039 72.391,92 l 0.613,0.559 c -0.215,0.691 -0.328,1.351 -0.391,1.996 0.157,0.258 0.282,0.535 0.2,0.968 0.05,0.411 -0.059,0.649 -0.211,0.817 0.246,3.152 1.753,5.898 1.781,8.91 l 3.972,-0.023 1.446,-1.125 -0.305,-2.797 0.168,-2.641 -0.09,-4.91 c 0.61,0.144 1.211,0.312 1.895,0.578 z"
         style="fill:#b50c36;fill-opacity:1;fill-rule:nonzero;stroke:none"
         id="path480" />
      <path
         d="m 55.762,60.809 c 0.488,0 1.761,0.113 2.64,-0.036 2.758,-0.457 4.18,-1.351 4.18,-3.32 0,-1.973 -1.246,-2.672 -5.039,-2.672 h -3.492 v 11.133 c 0.273,-0.016 0.562,-0.039 0.855,-0.039 0.274,0 0.543,0.023 0.856,0.039 z m 0,-5.391 c 0.586,-0.035 1.976,-0.051 2.816,0.016 1.547,0.113 2.215,0.992 2.215,2.097 0,1.449 -1.137,2.477 -3.094,2.637 -0.664,0.051 -1.449,0.051 -1.937,0 z"
         style="fill:#bdbcbc;fill-opacity:1;fill-rule:nonzero;stroke:none"
         id="path482" />
      <path
         d="m 67.992,61.141 -0.316,0.121 c -0.715,0.281 -0.696,0.246 -2,0.527 -1.535,0.332 -3.113,0.527 -3.199,2.281 -0.043,1.102 1.117,1.946 2.421,2.016 1.282,0.07 2.567,-0.492 2.989,-1.563 v 1.352 h 2.566 V 65.578 H 69.57 v -4.894 c 0,-1.297 -0.23,-2.508 -3.007,-2.629 -0.758,-0.035 -0.95,0.035 -1.497,0.105 -0.632,0.086 -1.222,0.278 -1.644,0.438 v 2.347 h 0.379 l 0.465,-0.98 c 0.398,-0.84 0.757,-1.754 2.125,-1.633 1.371,0.125 1.601,0.879 1.601,1.684 z m 0,1.105 c 0,0.453 0.02,0.734 -0.043,1.192 -0.148,1.015 -0.945,2.14 -2.273,2.21 -1.117,0.071 -1.641,-0.808 -1.559,-1.617 0.192,-1.804 0.887,-1.574 3.031,-2.242 l 0.844,-0.262 z"
         style="fill:#bdbcbc;fill-opacity:1;fill-rule:nonzero;stroke:none"
         id="path484" />
      <path
         d="m 75.262,65.875 h -3.809 v -0.297 h 0.945 V 58.563 H 71.41 v -0.317 h 2.465 v 1.598 c 0.105,-0.582 0.988,-1.649 2.379,-1.649 0.398,0 0.758,0.086 1.156,0.262 v 2.77 h -0.398 l -0.508,-1.282 c -0.356,-0.89 -0.629,-1.472 -1.176,-1.207 -1.433,0.684 -1.305,2.332 -1.305,3.875 v 2.965 h 1.239 z"
         style="fill:#bdbcbc;fill-opacity:1;fill-rule:nonzero;stroke:none"
         id="path486" />
      <path
         d="m 81.125,56.473 c 0,0.492 -0.484,0.843 -1.031,0.843 -0.528,0 -1.012,-0.386 -1.012,-0.824 0,-0.437 0.465,-0.859 0.988,-0.859 0.571,0 1.055,0.387 1.055,0.84 m -2.652,9.402 v -0.297 h 0.968 v -7.015 h -0.906 v -0.317 h 2.547 v 7.332 h 0.863 v 0.297 z"
         style="fill:#bdbcbc;fill-opacity:1;fill-rule:nonzero;stroke:none"
         id="path488" />
      <path
         d="m 88.227,60.035 c -0.399,-1.191 -0.797,-1.668 -1.895,-1.668 -0.945,0 -2.144,0.317 -2.23,1.281 -0.063,0.86 1.011,1.211 1.98,1.473 1.641,0.477 3.555,0.965 3.492,2.492 -0.043,1.457 -1.492,2.524 -3.472,2.489 -1.137,-0.016 -2.422,-0.387 -2.864,-0.649 v -2.508 h 0.379 l 0.442,1.262 c 0.484,1.422 1.031,1.441 1.894,1.508 1.199,0.105 2.57,-0.383 2.676,-1.367 0.144,-1.207 -1.789,-1.524 -3.012,-1.891 -0.863,-0.266 -2.547,-0.738 -2.547,-2.176 0,-1.683 2.188,-2.246 3.348,-2.246 0.969,0 2.082,0.317 2.484,0.528 v 2.296 H 88.5 Z"
         style="fill:#bdbcbc;fill-opacity:1;fill-rule:nonzero;stroke:none"
         id="path490" />
      <path
         d="m 16.773,41.23 h -3.562 v 10.168 c 0,0.461 -0.375,0.809 -0.809,0.809 h -0.379 c -0.457,0 -0.808,-0.348 -0.808,-0.809 V 41.23 H 7.68 c -0.457,0 -0.836,-0.296 -0.836,-0.753 V 40.18 c 0,-0.461 0.379,-0.758 0.808,-0.758 h 9.094 c 0.461,0 0.836,0.297 0.836,0.758 v 0.297 c 0,0.457 -0.375,0.753 -0.809,0.753"
         style="fill:#ffffff;fill-opacity:1;fill-rule:nonzero;stroke:none"
         id="path492" />
      <path
         d="m 28.297,52.211 h -8.313 c -0.429,0 -0.754,-0.324 -0.754,-0.758 V 40.18 c 0,-0.461 0.348,-0.758 0.782,-0.758 h 7.906 c 0.457,0 0.809,0.297 0.809,0.758 v 0.297 c 0,0.457 -0.352,0.753 -0.809,0.753 h -6.691 v 3.723 h 6.152 c 0.457,0 0.809,0.297 0.809,0.754 v 0.297 c 0,0.461 -0.352,0.758 -0.809,0.758 h -6.152 v 3.64 h 7.07 c 0.457,0 0.808,0.297 0.808,0.754 v 0.297 c 0,0.461 -0.351,0.758 -0.808,0.758"
         style="fill:#ffffff;fill-opacity:1;fill-rule:nonzero;stroke:none"
         id="path494" />
      <path
         d="M 39.547,52.211 H 31.156 V 40.234 c 0,-0.461 0.348,-0.812 0.809,-0.812 h 0.375 c 0.433,0 0.812,0.351 0.812,0.812 v 10.168 h 6.395 c 0.457,0 0.808,0.297 0.808,0.754 v 0.297 c 0,0.461 -0.351,0.758 -0.808,0.758"
         style="fill:#ffffff;fill-opacity:1;fill-rule:nonzero;stroke:none"
         id="path496" />
      <path
         d="m 50.742,52.211 h -8.308 c -0.434,0 -0.758,-0.324 -0.758,-0.758 V 40.18 c 0,-0.461 0.351,-0.758 0.785,-0.758 h 7.906 c 0.457,0 0.809,0.297 0.809,0.758 v 0.297 c 0,0.457 -0.352,0.753 -0.809,0.753 h -6.691 v 3.723 h 6.148 c 0.461,0 0.813,0.297 0.813,0.754 v 0.297 c 0,0.461 -0.352,0.758 -0.813,0.758 h -6.148 v 3.64 h 7.066 c 0.461,0 0.813,0.297 0.813,0.754 v 0.297 c 0,0.461 -0.352,0.758 -0.813,0.758"
         style="fill:#ffffff;fill-opacity:1;fill-rule:nonzero;stroke:none"
         id="path498" />
      <path
         d="M 61.859,52.211 H 56.57 c -1.672,0 -2.965,-1.43 -2.965,-3.078 v -6.715 c 0,-1.645 1.403,-2.996 3.075,-2.996 h 4.855 c 0.461,0 0.813,0.297 0.813,0.758 v 0.297 c 0,0.457 -0.352,0.753 -0.813,0.753 h -4.152 c -1.297,0 -1.781,0.754 -1.781,1.754 v 5.746 c 0,1.266 0.808,1.672 1.804,1.672 h 4.453 c 0.457,0 0.809,0.297 0.809,0.754 v 0.297 c 0,0.461 -0.352,0.758 -0.809,0.758"
         style="fill:#ffffff;fill-opacity:1;fill-rule:nonzero;stroke:none"
         id="path500" />
      <path
         d="m 72.977,42.715 c 0,-0.809 -0.676,-1.485 -1.485,-1.485 h -3.426 c -0.836,0 -1.484,0.676 -1.484,1.485 v 6.203 c 0,0.836 0.648,1.484 1.457,1.484 h 3.453 c 0.809,0 1.485,-0.648 1.485,-1.484 z m -1,9.492 h -4.399 c -1.672,0 -2.992,-1.375 -2.992,-3.019 v -6.797 c 0,-1.645 1.43,-2.969 3.102,-2.969 h 4.183 c 1.672,0 3.102,1.324 3.102,2.969 v 6.797 c 0,1.644 -1.348,3.019 -2.996,3.019"
         style="fill:#ffffff;fill-opacity:1;fill-rule:nonzero;stroke:none"
         id="path502" />
      <path
         d="m 88.57,52.211 h -0.375 c -0.433,0 -0.808,-0.352 -0.808,-0.813 v -8.523 l -2.699,3.777 c -0.243,0.325 -0.461,0.594 -0.864,0.594 h -0.269 c -0.407,0 -0.621,-0.269 -0.867,-0.594 l -2.696,-3.777 v 8.523 c 0,0.461 -0.379,0.813 -0.812,0.813 h -0.375 c -0.461,0 -0.809,-0.352 -0.809,-0.813 V 40.18 c 0,-0.434 0.297,-0.758 0.754,-0.758 h 0.484 c 0.352,0 0.649,0.324 0.836,0.594 l 3.618,5.097 3.644,-5.097 c 0.188,-0.27 0.457,-0.594 0.809,-0.594 h 0.484 c 0.461,0 0.758,0.324 0.758,0.758 v 11.218 c 0,0.461 -0.352,0.813 -0.813,0.813"
         style="fill:#ffffff;fill-opacity:1;fill-rule:nonzero;stroke:none"
         id="path504" />
    </g>
  </g>
</svg>
