<?xml version="1.0" encoding="UTF-8" standalone="no"?>
<!-- Created with Inkscape (http://www.inkscape.org/) -->

<svg
   version="1.1"
   id="svg2"
   width="218.80547"
   height="344.47427"
   viewBox="0 0 218.80547 344.47427"
   xmlns="http://www.w3.org/2000/svg"
   xmlns:svg="http://www.w3.org/2000/svg">
  <defs
     id="defs6" />
  <g
     id="g8"
     transform="matrix(1.3333333,0,0,1.3333333,0,9.9451898e-6)">
    <g
       id="g10">
      <path
         d="m 22.988,234.098 c -6.656,-4.582 -10.242,-7.028 -13.609,-9.524 -1.621,2.672 -2.551,5.809 -2.551,9.164 0,6.086 3.067,11.453 7.742,14.645 1.946,-3.836 4.563,-8.11 8.418,-14.285"
         style="fill:#231f20;fill-opacity:1;fill-rule:nonzero;stroke:none"
         id="path12" />
      <path
         d="m 40.418,237.633 c -2.742,2.91 -7.133,3.336 -10.273,1.351 -0.606,-0.379 -4.938,-3.367 -4.938,-3.367 -4.785,6.758 -7.238,10.153 -9.879,13.258 2.688,1.641 5.844,2.59 9.223,2.59 9.504,0 17.258,-7.481 17.703,-16.871 -0.387,1.129 -1.016,2.176 -1.836,3.039"
         style="fill:#231f20;fill-opacity:1;fill-rule:nonzero;stroke:none"
         id="path14" />
      <path
         d="m 37.141,227.648 c -0.59,-0.386 -4.387,-2.914 -4.387,-2.914 -3.113,4.586 -3.602,5.262 -5.981,8.668 0,0 4.137,2.676 4.731,3.043 2.141,1.321 4.98,0.926 6.648,-0.929 0.641,-0.711 1.098,-1.598 1.27,-2.528 0.332,-1.726 -0.215,-3.984 -2.281,-5.34"
         style="fill:#231f20;fill-opacity:1;fill-rule:nonzero;stroke:none"
         id="path16" />
      <path
         d="m 24.383,231.863 c 2.25,-3.582 4.277,-6.773 7.472,-11.597 0,0 6.7,4.418 7.293,4.843 0.707,0.5 1.215,1.004 1.625,1.489 -2.746,-6.231 -8.976,-10.582 -16.222,-10.582 -5.778,0 -10.906,2.765 -14.141,7.039 3.567,2.117 7.832,4.859 13.973,8.808"
         style="fill:#231f20;fill-opacity:1;fill-rule:nonzero;stroke:none"
         id="path18" />
      <path
         d="m 7.793,220.977 c 0.004,-1.235 -0.992,-2.239 -2.227,-2.243 -1.234,-0.004 -2.238,0.993 -2.242,2.227 -0.004,1.234 0.992,2.238 2.227,2.242 1.234,0.004 2.238,-0.992 2.242,-2.226"
         style="fill:#231f20;fill-opacity:1;fill-rule:nonzero;stroke:none"
         id="path20" />
      <path
         d="m 11.367,215.129 c 0.356,-0.254 0.434,-0.609 0.235,-0.891 l -0.004,-0.008 c -0.223,-0.312 -0.567,-0.316 -0.918,-0.062 l -0.543,0.387 0.687,0.965 z m -2.008,-0.664 1.055,-0.754 c 0.621,-0.445 1.266,-0.371 1.652,0.168 l 0.008,0.008 c 0.426,0.597 0.168,1.254 -0.418,1.676 l -0.531,0.378 0.613,0.86 -0.468,0.336 z"
         style="fill:#231f20;fill-opacity:1;fill-rule:nonzero;stroke:none"
         id="path22" />
      <path
         d="m 16.313,212.383 -0.004,-0.008 c -0.258,-0.586 -0.895,-0.883 -1.493,-0.617 -0.597,0.262 -0.8,0.922 -0.543,1.508 l 0.004,0.007 c 0.258,0.582 0.895,0.879 1.493,0.618 0.597,-0.266 0.804,-0.926 0.543,-1.508 m -2.586,1.144 -0.004,-0.007 c -0.375,-0.848 -0.035,-1.844 0.886,-2.25 0.926,-0.411 1.875,0.007 2.25,0.851 l 0.004,0.008 c 0.375,0.848 0.035,1.844 -0.886,2.25 -0.922,0.406 -1.875,-0.008 -2.25,-0.852"
         style="fill:#231f20;fill-opacity:1;fill-rule:nonzero;stroke:none"
         id="path24" />
      <path
         d="m 18.258,210.031 0.562,-0.125 0.594,2.692 1.684,-0.368 0.113,0.512 -2.25,0.496 z"
         style="fill:#231f20;fill-opacity:1;fill-rule:nonzero;stroke:none"
         id="path26" />
      <path
         d="m 22.898,211.285 -1.418,-1.91 0.68,-0.039 1.004,1.394 0.84,-1.503 0.66,-0.039 -1.184,2.046 0.079,1.309 -0.582,0.035 z"
         style="fill:#231f20;fill-opacity:1;fill-rule:nonzero;stroke:none"
         id="path28" />
      <path
         d="m 27.02,209.902 -1.036,-0.121 0.063,-0.531 2.644,0.305 -0.062,0.535 -1.031,-0.121 -0.317,2.73 -0.578,-0.07 z"
         style="fill:#231f20;fill-opacity:1;fill-rule:nonzero;stroke:none"
         id="path30" />
      <path
         d="m 30.648,209.984 2.329,0.715 -0.153,0.492 -1.773,-0.546 -0.25,0.816 1.574,0.484 -0.152,0.493 -1.575,-0.481 -0.257,0.84 1.797,0.555 -0.153,0.492 -2.347,-0.723 z"
         style="fill:#231f20;fill-opacity:1;fill-rule:nonzero;stroke:none"
         id="path32" />
      <path
         d="m 34.113,212.934 0.004,-0.008 c 0.446,-0.821 1.422,-1.16 2.297,-0.692 0.531,0.289 0.754,0.649 0.891,1.059 l -0.532,0.203 c -0.113,-0.34 -0.285,-0.617 -0.613,-0.797 -0.555,-0.297 -1.199,-0.058 -1.504,0.508 l -0.004,0.008 c -0.304,0.566 -0.156,1.242 0.399,1.539 0.355,0.195 0.66,0.172 1.031,0.074 l 0.148,0.504 c -0.468,0.152 -0.906,0.172 -1.449,-0.117 -0.84,-0.453 -1.113,-1.449 -0.668,-2.281"
         style="fill:#231f20;fill-opacity:1;fill-rule:nonzero;stroke:none"
         id="path34" />
      <path
         d="m 39.23,214.074 0.442,0.371 -0.879,1.047 1.203,1.004 0.875,-1.043 0.445,0.367 -2.109,2.52 -0.445,-0.371 0.89,-1.063 -1.203,-1.004 -0.886,1.059 -0.442,-0.371 z"
         style="fill:#231f20;fill-opacity:1;fill-rule:nonzero;stroke:none"
         id="path36" />
      <path
         d="m 43.063,217.633 0.328,0.422 -0.719,2.781 1.793,-1.391 0.348,0.45 -2.594,2.007 -0.297,-0.379 0.738,-2.863 -1.847,1.43 -0.344,-0.445 z"
         style="fill:#231f20;fill-opacity:1;fill-rule:nonzero;stroke:none"
         id="path38" />
      <path
         d="m 45.949,221.797 0.278,0.508 -2.883,1.57 -0.278,-0.508 z"
         style="fill:#231f20;fill-opacity:1;fill-rule:nonzero;stroke:none"
         id="path40" />
      <path
         d="m 45.414,227.188 0.27,-0.688 0.519,0.215 -0.305,0.703 c 0.204,0.051 0.418,0.035 0.637,-0.039 l 0.008,-0.004 c 0.605,-0.207 0.953,-0.816 0.742,-1.434 -0.211,-0.617 -0.851,-0.878 -1.457,-0.671 l -0.008,0.003 c -0.601,0.207 -0.953,0.817 -0.742,1.434 0.07,0.203 0.192,0.367 0.336,0.481 m -0.223,0.527 c -0.277,-0.195 -0.492,-0.481 -0.617,-0.844 -0.328,-0.953 0.168,-1.867 1.043,-2.168 l 0.008,-0.004 c 0.875,-0.301 1.84,0.125 2.164,1.078 0.328,0.953 -0.168,1.868 -1.039,2.168 l -0.012,0.004 c -0.347,0.121 -0.718,0.121 -1.058,0.012 l -0.184,0.457 -0.508,-0.215 z"
         style="fill:#231f20;fill-opacity:1;fill-rule:nonzero;stroke:none"
         id="path42" />
      <path
         d="m 46.855,229.715 1.875,-0.223 0.067,0.574 -1.852,0.219 c -0.609,0.07 -0.898,0.422 -0.836,0.934 0.059,0.508 0.407,0.785 1.004,0.715 l 1.879,-0.223 0.067,0.574 -1.852,0.215 c -0.973,0.117 -1.523,-0.375 -1.625,-1.227 -0.102,-0.847 0.324,-1.449 1.273,-1.558"
         style="fill:#231f20;fill-opacity:1;fill-rule:nonzero;stroke:none"
         id="path44" />
      <path
         d="m 49.078,234.504 -0.187,2.43 -0.516,-0.039 0.145,-1.856 -0.852,-0.062 -0.125,1.64 -0.516,-0.043 0.125,-1.64 -0.879,-0.067 -0.144,1.875 -0.516,-0.039 0.192,-2.449 z"
         style="fill:#231f20;fill-opacity:1;fill-rule:nonzero;stroke:none"
         id="path46" />
      <path
         d="m 10.586,253.895 -0.473,-0.332 1.903,-2.68 0.468,0.332 z"
         style="fill:#231f20;fill-opacity:1;fill-rule:nonzero;stroke:none"
         id="path48" />
      <path
         d="m 8.168,252.035 -0.379,-0.379 0.371,-2.847 -1.609,1.601 -0.399,-0.402 2.328,-2.317 0.34,0.344 -0.382,2.93 1.66,-1.645 0.398,0.403 z"
         style="fill:#231f20;fill-opacity:1;fill-rule:nonzero;stroke:none"
         id="path50" />
      <path
         d="m 7.152,246.797 -0.535,-0.063 c 0.055,-0.414 0.012,-0.761 -0.215,-1.101 -0.195,-0.297 -0.457,-0.399 -0.664,-0.258 l -0.008,0.004 c -0.195,0.129 -0.23,0.309 -0.011,0.894 0.242,0.676 0.289,1.118 -0.219,1.454 l -0.008,0.003 c -0.469,0.309 -1.051,0.133 -1.41,-0.414 C 3.82,246.918 3.73,246.52 3.77,246.098 l 0.535,0.015 c -0.02,0.371 0.043,0.68 0.211,0.93 0.183,0.281 0.437,0.352 0.617,0.234 l 0.008,-0.004 c 0.211,-0.14 0.222,-0.328 0.004,-0.933 -0.243,-0.676 -0.235,-1.113 0.222,-1.41 l 0.008,-0.008 c 0.512,-0.336 1.082,-0.137 1.465,0.441 0.273,0.418 0.39,0.91 0.312,1.434"
         style="fill:#231f20;fill-opacity:1;fill-rule:nonzero;stroke:none"
         id="path52" />
      <path
         d="m 2.648,243.5 0.411,0.957 -0.493,0.211 -1.05,-2.449 0.492,-0.211 0.41,0.957 2.523,-1.086 0.231,0.535 z"
         style="fill:#231f20;fill-opacity:1;fill-rule:nonzero;stroke:none"
         id="path54" />
      <path
         d="m 0.973,240.441 -0.149,-0.554 3.168,-0.86 0.153,0.559 z"
         style="fill:#231f20;fill-opacity:1;fill-rule:nonzero;stroke:none"
         id="path56" />
      <path
         d="m 0.797,236.984 0.129,1.036 -0.531,0.062 -0.332,-2.641 0.531,-0.066 0.129,1.031 2.73,-0.34 0.07,0.579 z"
         style="fill:#231f20;fill-opacity:1;fill-rule:nonzero;stroke:none"
         id="path58" />
      <path
         d="M 1.887,233.672 0,233.551 l 0.039,-0.578 1.863,0.121 c 0.61,0.039 0.953,-0.254 0.989,-0.77 0.035,-0.508 -0.254,-0.844 -0.86,-0.883 l -1.886,-0.121 0.035,-0.578 1.859,0.121 c 0.981,0.067 1.434,0.649 1.379,1.504 -0.055,0.852 -0.578,1.363 -1.531,1.305"
         style="fill:#231f20;fill-opacity:1;fill-rule:nonzero;stroke:none"
         id="path60" />
      <path
         d="m 1.27,227.996 -0.262,1.008 -0.52,-0.133 0.672,-2.578 0.516,0.133 -0.262,1.008 2.66,0.691 -0.144,0.563 z"
         style="fill:#231f20;fill-opacity:1;fill-rule:nonzero;stroke:none"
         id="path62" />
      <path
         d="m 17.859,256.332 c 0.508,0.145 0.891,0.027 1.028,-0.449 l 0.004,-0.008 c 0.136,-0.48 -0.133,-0.777 -0.637,-0.922 l -0.188,-0.055 -0.39,1.379 z m -0.625,-2.711 1.27,0.359 c 1.312,0.375 1.785,1.208 1.508,2.188 l -0.004,0.008 c -0.278,0.98 -1.145,1.484 -2.485,1.101 l -1.226,-0.347 z"
         style="fill:#231f20;fill-opacity:1;fill-rule:nonzero;stroke:none"
         id="path64" />
      <path
         d="m 22.105,254.773 2.93,0.145 -0.047,0.941 -1.8,-0.086 -0.02,0.348 1.68,0.082 -0.039,0.828 -1.68,-0.082 -0.02,0.375 1.829,0.09 -0.047,0.941 -2.953,-0.144 z"
         style="fill:#231f20;fill-opacity:1;fill-rule:nonzero;stroke:none"
         id="path66" />
      <path
         d="m 31.266,255.57 c 0.285,-0.086 0.433,-0.273 0.359,-0.507 l -0.004,-0.008 c -0.07,-0.242 -0.281,-0.309 -0.574,-0.219 l -0.301,0.09 0.227,0.734 z m -1.887,-1.187 1.48,-0.453 c 0.875,-0.266 1.59,-0.059 1.829,0.722 l 0.003,0.008 c 0.243,0.797 -0.234,1.403 -1.125,1.676 l -0.355,0.109 0.273,0.891 -1.101,0.336 z"
         style="fill:#231f20;fill-opacity:1;fill-rule:nonzero;stroke:none"
         id="path68" />
      <path
         d="m 36.348,253.859 -0.688,-0.57 0.141,0.883 z m -1.844,-1.472 0.992,-0.563 2.973,2.297 -1.082,0.617 -0.387,-0.312 -1.047,0.597 0.074,0.489 -1.07,0.609 z"
         style="fill:#231f20;fill-opacity:1;fill-rule:nonzero;stroke:none"
         id="path70" />
      <path
         d="m 40.176,250.34 c 0.203,-0.188 0.242,-0.395 0.097,-0.547 l -0.007,-0.008 c -0.153,-0.16 -0.352,-0.125 -0.547,0.059 l -0.364,0.34 0.458,0.492 z m -2.321,-0.074 1.231,-1.149 c 0.445,-0.414 0.832,-0.566 1.172,-0.554 0.293,0.007 0.547,0.121 0.789,0.378 l 0.004,0.008 c 0.344,0.367 0.39,0.801 0.222,1.235 l 1.387,0.304 -0.961,0.899 -1.144,-0.278 -0.008,0.008 -0.172,0.16 0.668,0.719 -0.84,0.785 z"
         style="fill:#231f20;fill-opacity:1;fill-rule:nonzero;stroke:none"
         id="path72" />
      <path
         d="m 41.301,246.688 0.683,-0.93 2.774,2.035 -0.68,0.926 z"
         style="fill:#231f20;fill-opacity:1;fill-rule:nonzero;stroke:none"
         id="path74" />
      <path
         d="m 45.477,245.805 -0.391,-0.875 c 0.422,-0.211 0.715,-0.543 0.891,-0.907 0.089,-0.187 0.078,-0.289 -0.004,-0.328 l -0.008,-0.004 c -0.09,-0.043 -0.184,0.028 -0.414,0.329 -0.477,0.625 -0.973,1.136 -1.629,0.82 l -0.008,-0.004 c -0.586,-0.285 -0.82,-0.969 -0.406,-1.82 0.293,-0.598 0.648,-0.969 1.105,-1.192 l 0.453,0.844 c -0.355,0.187 -0.617,0.492 -0.757,0.781 -0.075,0.153 -0.055,0.25 0.019,0.285 l 0.008,0.004 c 0.086,0.043 0.18,-0.015 0.402,-0.312 0.528,-0.723 1.016,-1.141 1.641,-0.836 l 0.008,0.004 c 0.648,0.316 0.789,1.047 0.383,1.875 -0.305,0.629 -0.758,1.105 -1.293,1.336"
         style="fill:#231f20;fill-opacity:1;fill-rule:nonzero;stroke:none"
         id="path76" />
      <path
         d="m 58.914,226.148 h 3.332 V 241.3 h -3.332 z"
         style="fill:#231f20;fill-opacity:1;fill-rule:nonzero;stroke:none"
         id="path78" />
      <path
         d="m 74.652,233.789 h -2.64 v -4.629 h 2.574 c 1.668,0 2.707,0.82 2.707,2.317 0,1.296 -0.977,2.312 -2.641,2.312 m 0.215,-7.641 H 68.68 v 15.153 h 3.332 v -4.547 h 2.531 c 3.398,0 6.125,-1.84 6.125,-5.344 0,-3.097 -2.184,-5.262 -5.801,-5.262"
         style="fill:#231f20;fill-opacity:1;fill-rule:nonzero;stroke:none"
         id="path80" />
      <path
         d="m 97.492,233.789 h -2.64 v -4.629 h 2.574 c 1.668,0 2.707,0.82 2.707,2.317 0,1.296 -0.977,2.312 -2.641,2.312 m 0.215,-7.641 h -6.191 v 15.153 h 3.336 v -4.547 h 2.531 c 3.398,0 6.125,-1.84 6.125,-5.344 0,-3.097 -2.184,-5.262 -5.801,-5.262"
         style="fill:#231f20;fill-opacity:1;fill-rule:nonzero;stroke:none"
         id="path82" />
      <path
         d="m 115.328,234.961 -2.012,-4.914 -2.011,4.914 z m -3.508,-8.918 h 3.075 l 6.496,15.258 h -3.489 l -1.382,-3.399 h -6.407 l -1.386,3.399 h -3.399 z"
         style="fill:#231f20;fill-opacity:1;fill-rule:nonzero;stroke:none"
         id="path84" />
      <path
         d="m 132.277,233.508 c 1.625,0 2.555,-0.863 2.555,-2.145 v -0.043 c 0,-1.425 -0.996,-2.164 -2.621,-2.164 h -3.309 v 4.352 z m -6.711,-7.36 h 6.93 c 1.926,0 3.418,0.543 4.414,1.54 0.844,0.843 1.297,2.035 1.297,3.464 v 0.043 c 0,2.446 -1.32,3.981 -3.246,4.696 l 3.703,5.41 h -3.898 l -3.246,-4.848 h -2.618 v 4.848 h -3.336 z"
         style="fill:#231f20;fill-opacity:1;fill-rule:nonzero;stroke:none"
         id="path86" />
      <path
         d="m 143.863,226.148 h 3.336 V 241.3 h -3.336 z"
         style="fill:#231f20;fill-opacity:1;fill-rule:nonzero;stroke:none"
         id="path88" />
      <path
         d="m 159.301,232.23 c -2.621,-0.667 -3.27,-1.015 -3.27,-2.011 0,-0.735 0.668,-1.34 1.949,-1.34 1.278,0 2.594,0.562 3.938,1.492 l 1.73,-2.512 c -1.535,-1.234 -3.418,-1.925 -5.625,-1.925 -3.093,0 -5.304,1.839 -5.304,4.589 0,3.008 1.969,3.875 5.023,4.653 2.531,0.648 3.051,1.105 3.051,1.949 0,0.887 -0.824,1.449 -2.188,1.449 -1.73,0 -3.16,-0.715 -4.523,-1.84 l -1.969,2.36 c 1.817,1.621 4.133,2.426 6.43,2.426 3.266,0 5.562,-1.711 5.562,-4.723 0,-2.641 -1.73,-3.766 -4.804,-4.567"
         style="fill:#231f20;fill-opacity:1;fill-rule:nonzero;stroke:none"
         id="path90" />
      <path
         d="m 0.223,196.141 h 163.391 v 1.746 H 0.223 Z"
         style="fill:#231f20;fill-opacity:1;fill-rule:nonzero;stroke:none"
         id="path92" />
      <path
         d="M 0.219,0 H 163.617 V 112.445 H 0.219 Z"
         style="fill:#231f20;fill-opacity:1;fill-rule:nonzero;stroke:none"
         id="path94" />
      <path
         d="m 163.473,163.219 -0.067,-43.196 h -7.324 c -0.762,1.016 -0.246,5.598 -2.566,6.473 -7.848,-1.762 -0.696,-2.652 -3.391,-6.473 -0.336,0.02 -3.535,-0.003 -3.875,0 0.367,0.051 1.734,1.586 -0.316,3.344 -2.75,18.106 2.304,25.485 -0.25,39.84 z"
         style="fill:#b50c36;fill-opacity:1;fill-rule:nonzero;stroke:none"
         id="path96" />
      <path
         d="m 46.625,133.398 c 2.938,-1.386 2.961,-4.457 3.098,-6.468 -0.891,-1 -4.375,-1.063 -5.774,-0.805 -1.933,1.617 -0.254,4.508 -1.41,6.391 0.766,1.625 2.809,0.488 4.086,0.882"
         style="fill:#b50c36;fill-opacity:1;fill-rule:nonzero;stroke:none"
         id="path98" />
      <path
         d="m 63.418,154.832 0.871,0.25 c 0.797,0.16 1.875,0.195 2.711,-0.156 -0.219,-0.578 -0.516,-1.129 -0.871,-1.574 -0.953,0.457 -1.859,0.937 -2.711,1.48"
         style="fill:#b50c36;fill-opacity:1;fill-rule:nonzero;stroke:none"
         id="path100" />
      <path
         d="m 63.645,135.289 c -1.774,-4.707 4.632,-6.625 7.101,-9.5 l 3.317,1.848 c -0.364,3.215 -6.235,3.808 -5.875,7.293 0.613,0.519 1.144,1.394 1.941,1.562 0.281,0.867 -0.445,1.395 -0.969,1.922 -2.578,1.039 -3.902,-1.484 -5.515,-3.125 M 67,154.926 c 0.695,1.738 0.777,3.887 -0.055,5.246 l -8.574,0.301 v -1.098 c 1.504,-1.984 3.168,-3.383 5.047,-4.543 l -1.723,-0.484 c -2.449,-1.676 3.313,-4.078 4.207,-4.731 l 2.317,3.707 c -0.071,0.836 -0.571,1.324 -1.219,1.602 m -17.055,4.121 c -1.843,-3.188 0.305,-8.5 0.817,-11.543 0.433,-0.434 0.883,-1.024 1.629,-0.789 0.515,1.664 -1.93,2.75 -0.293,4.187 1.691,-0.5 3.914,1.024 5.609,-0.281 -0.887,-1.445 -2.734,-0.719 -3.988,-1.305 v -0.789 l 3.781,-0.23 c 0.586,0.805 3.266,1.558 2.672,3.09 -2.516,3.554 -6.824,5.629 -10.227,7.66 m -2.98,-17.981 c 0.394,-0.652 1.164,-0.265 1.726,-0.371 0.204,1.598 2.692,-0.379 1.731,1.707 h -0.277 c -1.059,0.551 -2.786,0 -3.18,-1.336 m 4.906,0.942 c 1.281,-0.746 3.067,-0.629 2.77,1.836 h -2.075 c -0.398,-0.496 -0.996,-0.989 -0.695,-1.836 m 1.559,-17.36 c 0.359,-0.582 0.883,-1.675 1.925,-1.316 -0.089,0.867 -0.527,2.477 -1.925,1.816 z m 2.437,19.446 c 1.992,0.437 4.149,-1.082 5.613,0.508 -0.656,1.386 -0.656,3.695 -2.957,2.39 -1.023,-0.801 -3.328,-0.437 -3.168,-2.39 z m 0.219,-18.145 c 0.148,-1.66 2.144,-1.011 3.258,-1.523 l 0.222,0.722 c -1.043,0.801 -1.781,2.547 -3.48,1.887 z m 5.922,12.633 c -1.266,0.871 -3.399,0.57 -4.817,0.281 0.372,-0.57 0.457,-1.234 0.516,-1.879 0.902,-0.73 1.859,-2.32 3.488,-1.82 0.664,0.938 0.961,2.109 0.813,3.418 m -0.035,-13.187 -0.36,4.535 c -0.179,0.711 -0.722,2.129 -2,1.593 -1.543,0.364 -0.734,-1.515 -0.91,-2.21 1.363,-1.157 1.735,-3.657 3.27,-3.918 M 47.57,138.863 h -1.101 c -1.555,-0.57 -4.965,-1.371 -5.106,-3.179 2.149,0.57 4.067,1.656 6.207,2.386 z m 26.719,4.719 c -2.066,0.07 -3.851,3.059 -5.625,1.816 1.039,-2.906 3.328,-5.293 4.293,-8.125 1.703,-3.859 4.477,-12.269 3.293,-17.281 h -7.941 c -2.586,0.731 -0.672,7.414 -3.348,7.856 -0.734,-1.828 -0.516,-4.004 -2.617,-7.805 h -4.289 c 0.324,2.863 -0.114,3 -0.348,3.289 -1.473,0.078 -1.324,-2.242 -3.18,-1.012 -1.621,-0.293 -2.058,2.328 -3.765,1.821 -0.582,-1.387 -2.219,-3.192 -4,-2.114 1.551,3.352 9.324,4.727 5.629,10.235 -0.746,1.597 -0.153,3.914 -2.141,4.722 -3.488,-0.945 -6.738,-2.254 -10.219,-3.125 0.375,1.305 -0.59,3.125 -0.226,4.434 3.707,0.496 4.82,4.352 7.988,5.512 0.676,0.508 0.969,1.082 0.828,1.886 -2.226,0.95 -4.598,-1.015 -6.664,-1.886 -0.519,0.211 -0.234,0.726 -0.301,1.082 1.922,2.258 8.137,1.304 6.137,6.015 -1.699,3.86 -1.324,10.243 -7.168,10.762 -0.527,1.156 0.879,1.066 1.332,1.586 5.023,0.508 10.211,-4.289 14.426,-0.293 1.402,0 3.183,-0.883 4.297,0.262 h 12.617 c 2.379,-4.594 0.539,-7.535 0.766,-11.746 0.277,-1.071 -2.954,-2.157 -5.399,-1.571 -0.437,-0.293 -0.148,-0.875 -0.215,-1.375 1.621,-1.886 8.133,0.938 6.656,-3.64 0,-0.356 0,-1.235 -0.816,-1.305"
         style="fill:#b50c36;fill-opacity:1;fill-rule:nonzero;stroke:none"
         id="path102" />
      <path
         d="m 12.625,124.68 c -7.91,-0.508 -12.152,0.304 -12.258,0.273 v 6.27 h 1.477 c 1.781,0.535 2.992,0.57 4.781,0.57 6.637,0.676 12.227,-0.297 18.813,-0.656 -0.747,-0.223 -1.497,-0.403 -2.176,-0.36 -1.117,-0.843 -1.821,-1.39 -1.559,-2.726 1.746,-1.863 4.945,-0.324 6.992,-1.434 1.809,0.696 0.602,2.668 1.032,3.891 -0.18,0.344 -0.375,0.312 -0.586,0.504 2.015,-0.016 4.164,0.051 6.48,0.261 v -6.492 c -9.793,-0.629 -16.703,0.282 -22.996,-0.101"
         style="fill:#b50c36;fill-opacity:1;fill-rule:nonzero;stroke:none"
         id="path104" />
      <path
         d="m 86.195,137.719 c -1.425,0.363 -3.238,0.652 -4.535,-0.203 0.653,-1.465 2.231,-0.594 3.324,-0.817 0.379,0.516 1.164,-0.066 1.211,1.02 m 4.7,15.433 v 1.914 c -2.543,0.879 -4.903,3.649 -7.68,2.43 v -1.734 c 1.109,-0.52 2.398,1.043 3.336,-1.391 1.523,0.184 2.773,-2.07 4.344,-1.219 m -2.168,-26.078 -1.204,1.344 c -0.468,0 -1.312,-1.438 -1.449,-2.016 0.375,-0.433 2.461,0.164 2.653,0.672 m 0.101,3.11 c 0.594,0.433 1.844,0.468 1.195,2.101 -0.738,0.66 -1.293,-1.062 -1.988,-1.273 z m 1.422,17.652 v 2.219 c -0.715,-0.121 -1.66,0.367 -2.195,-0.371 0.144,-1.715 1.48,-1.594 2.195,-1.848 m 0.801,-5.793 H 86.93 v -1.516 h 4.121 z m 2.32,18.656 c -0.976,2.278 -2.781,0.621 -4.027,0 -1.028,-0.418 -1.852,2.594 -2.817,0.414 -0.047,-0.523 0.231,-0.73 0.325,-1.144 2.261,-1.559 4.617,-0.305 6.519,0.73 M 81.02,150.863 h 2.824 v 0.793 H 81.02 Z m 4.828,-17.816 c -0.883,0.691 -2.114,1.008 -3.133,1.125 l -0.613,-2.039 c 1.168,-0.102 3.3,-0.684 3.746,0.914 m -3.489,-3.168 h 2.168 v 0.789 h -2.168 z m 13.34,1.668 v 2.445 c -1.136,-0.133 -2.511,0.375 -3.504,-0.394 0.493,-1.774 2.368,-1.664 3.504,-2.051 m -8.847,-9.063 c 3.187,0.793 6.535,1.172 9.918,1.309 V 120.02 H 82.605 c -0.015,2.988 -2.285,7.171 -2.285,7.171 1.243,-0.011 2.453,0.075 3.547,0.594 v 0.793 c -1.156,-0.285 -2.34,-0.433 -3.547,-0.504 v 12.258 h 1.563 c 0.09,0.289 0.371,0.441 0.308,0.797 l -0.308,0.586 H 80.32 v 1.492 c 0.528,0.027 1.09,0.172 1.563,0.035 0.027,0.067 0.055,0.137 0.101,0.196 0.739,0.136 1.258,1.113 2.172,0.601 v 0.789 h -1.644 c -0.321,0 -0.719,-0.09 -0.965,-0.383 -0.387,0.149 -0.805,0.215 -1.227,0.157 v 1.125 c 1.243,-0.461 2.868,0.066 4.063,0.121 0.137,0.297 0.414,0.445 0.324,0.808 l -0.324,0.574 c -1.242,-0.453 -2.77,-0.214 -4.063,-0.343 v 9.48 c 0.446,0.086 0.895,0.211 1.243,0.297 0.132,0.359 0.507,0.578 0.507,1.008 -0.48,0.289 -1.113,0.359 -1.75,0.234 v 5.301 h 16.45 v -5.301 c -0.629,0.125 -2.192,0.196 -2.676,-0.086 0,-0.441 1.64,-3.765 2.094,-3.851 l 0.582,-7.082 c -1.293,0.129 -2.809,-0.11 -4.055,0.343 l -0.32,-0.574 c -0.086,-0.363 0.191,-0.511 0.32,-0.808 1.203,-0.055 2.828,-0.582 4.055,-0.121 v -1.125 c -0.676,0.082 -1.391,-0.098 -1.875,-0.563 -0.051,-0.371 0.226,-0.512 0.324,-0.797 0.472,0.137 1.031,-0.008 1.551,-0.035 v -1.492 h -1.551 l -0.324,-0.586 c -0.051,-0.356 0.226,-0.508 0.324,-0.797 h 1.551 v -12.258 c -1.196,0.071 -2.399,0.219 -3.543,0.504 v -0.793 c 1.097,-0.519 2.316,-0.605 3.543,-0.594 v -2.41 c -2.926,-0.164 -5.829,-0.468 -8.582,-0.699 -0.696,-0.371 -1.708,-0.289 -2.18,-1.019 0.187,-0.504 0.519,-0.579 0.844,-0.579"
         style="fill:#b50c36;fill-opacity:1;fill-rule:nonzero;stroke:none"
         id="path106" />
      <path
         d="m 13.945,122.684 c 6.985,0 14.664,-0.637 21.75,-0.09 v -2.66 H 0.297 c -0.039,1.105 0,2.836 0,2.836 4.43,-0.731 9.933,-0.086 13.648,-0.086"
         style="fill:#b50c36;fill-opacity:1;fill-rule:nonzero;stroke:none"
         id="path108" />
      <path
         d="m 8.512,135.535 c -1.985,0 -4.137,-1.937 -6.125,-2.578 H 1.395 l -0.997,0.219 -0.043,30.031 h 35.387 v -30.379 c -9.234,-1.062 -17.285,3.406 -27.23,2.707"
         style="fill:#b50c36;fill-opacity:1;fill-rule:nonzero;stroke:none"
         id="path110" />
      <path
         d="m 136.684,139.824 c -0.809,-0.074 -2.629,-0.25 -2.786,-1.414 -0.183,-1.262 -0.257,-3.019 2.551,-2.508 2.086,0.539 2.922,3.43 0.235,3.922 m -5.008,15.77 c -0.883,0.992 -0.633,5.429 -2.766,3.129 -2.273,-5.977 0.805,-10.094 1.317,-15.407 1.328,-1.449 2.789,-1.98 3.621,-1.613 0.207,0.043 1.316,2.707 1.504,2.746 0.25,3.656 -1.965,3.836 0.171,9.899 -0.578,0.988 -3.175,0.48 -3.847,1.246 m -5.285,-19.367 c 0.441,-0.586 2,-1.411 2.824,-1.27 0.887,0.363 1.476,2.039 1.113,3.199 -0.082,0.942 -1.113,0.723 -1.855,0.723 -1.039,-0.363 -2.383,-1.418 -2.082,-2.652 m -3,-2.278 c -0.309,1.239 -1.848,2.684 -3.77,2.317 -0.969,-0.731 -0.644,-2.118 -0.867,-3.129 0.223,-0.727 2.351,-1.305 3.246,-1.082 0.371,0.504 1.676,1.172 1.391,1.894 m -4.34,-6.101 c 0.437,1.746 -1.961,2.058 -2.863,2.156 -1.004,-0.535 -2.278,-2.488 -1.61,-4.125 0.672,-0.668 1.227,-1.535 2.457,-1.199 0.656,1.082 2.567,1.633 2.016,3.168 m -4.934,29.129 v -2.696 l -2.039,-1.926 -0.859,-2.89 c -1,-4.418 0.144,-9.547 0.941,-11.211 -0.039,0.027 -0.043,0.039 -0.078,0.051 -0.742,-0.219 -1.926,0.433 -2.375,-0.5 0.676,-1.094 -0.285,-2.77 0.824,-3.703 0.809,-0.153 2.821,-0.11 3.34,0.468 -0.055,0.899 -0.094,2.184 -0.91,3.086 0.848,-0.179 1.781,-0.027 2.445,0.637 -0.215,8.453 0.606,14.168 1.293,21.926 z m -8.023,-27.914 c -1.422,-1.215 -2.301,-2.618 -1.946,-4.532 0.891,-2.09 3.899,-1.394 5.145,-0.519 0.953,1.398 2.668,3.054 0.039,3.789 0.262,3.375 -2.187,2.844 -3.238,1.262 m 35.511,13.949 c -2.066,-5.016 2.649,-21.707 -4.972,-23.078 -0.836,-0.121 -1.539,0.226 -2.199,0.777 1.332,0.949 2.339,2.371 2.562,3.984 -1.777,3.918 -5.469,-0.871 -7.988,0.438 v 3.191 c -1.043,0.867 -1.785,2.031 -3.254,1.59 -0.895,-1.016 -2.078,-1.734 -1.641,-3.18 0.907,-1.886 2.965,-1.164 4.297,-2.039 -0.031,-0.047 -0.055,-0.093 -0.082,-0.136 -2.527,-0.618 -2.195,-4.567 -6.473,-4.567 h -8.171 c -3.793,1.172 -8.461,3.336 -12.832,0.028 l 0.824,5.386 0.543,1.84 -0.016,1.609 1.926,1.676 -2.004,1.711 0.684,4.145 c 1.507,0.449 3.136,0.523 3.211,1.906 -0.278,2.262 -1.977,4.855 -2.04,7.191 -0.097,2.895 1.508,14.84 1.465,17.723 1.559,-0.141 9.032,-0.445 10.555,-1.223 0.012,0.059 2.082,1.161 2.082,1.223 2.652,0.258 6.121,0.914 5.258,-3.687 l -1.918,-12.239 c -2.281,-6.269 1.918,-7.828 3.32,-7.902 l 1.106,1.008 c -0.387,1.242 -0.594,2.437 -0.7,3.593 0.278,0.469 0.504,0.965 0.356,1.747 0.094,0.738 -0.106,1.171 -0.383,1.472 0.442,5.68 3.16,10.625 3.207,16.051 l 7.156,-0.043 2.606,-2.027 -0.547,-5.039 0.301,-4.75 -0.16,-8.848 c 1.097,0.254 2.179,0.562 3.41,1.039 z"
         style="fill:#b50c36;fill-opacity:1;fill-rule:nonzero;stroke:none"
         id="path112" />
      <path
         d="m 94.793,83.184 c 0.883,0 3.172,0.207 4.758,-0.059 4.969,-0.828 7.531,-2.441 7.531,-5.988 0,-3.547 -2.246,-4.809 -9.082,-4.809 h -6.289 v 20.059 c 0.492,-0.028 1.016,-0.074 1.543,-0.074 0.488,0 0.976,0.046 1.539,0.074 z m 0,-9.711 c 1.059,-0.059 3.562,-0.09 5.078,0.027 2.781,0.207 3.981,1.789 3.981,3.781 0,2.61 -2.043,4.457 -5.571,4.75 -1.195,0.09 -2.605,0.09 -3.488,0 z"
         style="fill:#bdbcbc;fill-opacity:1;fill-rule:nonzero;stroke:none"
         id="path114" />
      <path
         d="m 116.82,83.781 -0.566,0.223 c -1.289,0.504 -1.254,0.441 -3.602,0.945 -2.769,0.602 -5.613,0.949 -5.765,4.11 -0.074,1.992 2.011,3.507 4.359,3.632 2.313,0.125 4.629,-0.882 5.387,-2.808 v 2.43 h 4.625 v -0.536 h -1.594 v -8.816 c 0,-2.34 -0.414,-4.52 -5.422,-4.738 -1.363,-0.067 -1.707,0.062 -2.691,0.187 -1.137,0.16 -2.199,0.504 -2.957,0.789 v 4.235 h 0.683 l 0.832,-1.77 c 0.723,-1.516 1.368,-3.156 3.832,-2.937 2.461,0.222 2.879,1.582 2.879,3.035 z m 0,1.992 c 0,0.821 0.039,1.329 -0.074,2.149 -0.266,1.832 -1.707,3.855 -4.094,3.98 -2.011,0.125 -2.961,-1.453 -2.808,-2.906 0.344,-3.254 1.594,-2.844 5.461,-4.047 l 1.515,-0.472 z"
         style="fill:#bdbcbc;fill-opacity:1;fill-rule:nonzero;stroke:none"
         id="path116" />
      <path
         d="m 129.918,92.313 h -6.863 v -0.536 h 1.707 v -12.64 h -1.782 v -0.571 h 4.438 v 2.879 c 0.187,-1.043 1.781,-2.972 4.281,-2.972 0.723,0 1.367,0.16 2.086,0.476 v 4.992 h -0.719 l -0.914,-2.308 c -0.64,-1.61 -1.132,-2.653 -2.121,-2.18 -2.578,1.235 -2.351,4.203 -2.351,6.985 v 5.339 h 2.238 z"
         style="fill:#bdbcbc;fill-opacity:1;fill-rule:nonzero;stroke:none"
         id="path118" />
      <path
         d="m 140.473,75.379 c 0,0.883 -0.871,1.516 -1.856,1.516 -0.949,0 -1.82,-0.696 -1.82,-1.485 0,-0.789 0.836,-1.551 1.781,-1.551 1.024,0 1.895,0.696 1.895,1.52 m -4.774,16.934 v -0.536 h 1.742 v -12.64 h -1.628 v -0.571 h 4.585 v 13.211 h 1.555 v 0.536 z"
         style="fill:#bdbcbc;fill-opacity:1;fill-rule:nonzero;stroke:none"
         id="path120" />
      <path
         d="m 153.27,81.793 c -0.723,-2.148 -1.442,-3.004 -3.415,-3.004 -1.707,0 -3.867,0.57 -4.019,2.309 -0.113,1.547 1.82,2.179 3.562,2.652 2.961,0.855 6.411,1.738 6.297,4.488 -0.078,2.621 -2.691,4.551 -6.257,4.485 -2.047,-0.032 -4.36,-0.696 -5.157,-1.168 v -4.516 h 0.684 l 0.797,2.274 c 0.871,2.558 1.855,2.589 3.41,2.714 2.16,0.192 4.629,-0.691 4.816,-2.464 0.266,-2.176 -3.222,-2.747 -5.422,-3.411 -1.554,-0.472 -4.589,-1.328 -4.589,-3.918 0,-3.035 3.945,-4.046 6.031,-4.046 1.742,0 3.754,0.57 4.472,0.949 v 4.14 h -0.718 z"
         style="fill:#bdbcbc;fill-opacity:1;fill-rule:nonzero;stroke:none"
         id="path122" />
      <path
         d="m 24.57,47.914 h -6.414 v 18.32 c 0,0.825 -0.679,1.457 -1.457,1.457 H 16.02 c -0.825,0 -1.457,-0.632 -1.457,-1.457 V 47.914 H 8.195 c -0.828,0 -1.507,-0.535 -1.507,-1.359 V 46.02 c 0,-0.829 0.679,-1.364 1.457,-1.364 h 16.378 c 0.829,0 1.508,0.535 1.508,1.364 v 0.535 c 0,0.824 -0.679,1.359 -1.461,1.359"
         style="fill:#ffffff;fill-opacity:1;fill-rule:nonzero;stroke:none"
         id="path124" />
      <path
         d="M 45.324,67.691 H 30.355 c -0.777,0 -1.359,-0.582 -1.359,-1.359 V 46.02 c 0,-0.829 0.629,-1.364 1.406,-1.364 h 14.239 c 0.828,0 1.461,0.535 1.461,1.364 v 0.531 c 0,0.828 -0.633,1.363 -1.461,1.363 H 32.59 v 6.707 h 11.082 c 0.824,0 1.457,0.535 1.457,1.359 v 0.536 c 0,0.824 -0.633,1.359 -1.457,1.359 H 32.59 v 6.563 h 12.734 c 0.824,0 1.457,0.535 1.457,1.359 v 0.535 c 0,0.824 -0.633,1.359 -1.457,1.359"
         style="fill:#ffffff;fill-opacity:1;fill-rule:nonzero;stroke:none"
         id="path126" />
      <path
         d="M 65.59,67.691 H 50.473 V 46.117 c 0,-0.828 0.632,-1.461 1.457,-1.461 h 0.683 c 0.778,0 1.457,0.633 1.457,1.461 v 18.321 h 11.52 c 0.824,0 1.457,0.535 1.457,1.359 v 0.535 c 0,0.824 -0.633,1.359 -1.457,1.359"
         style="fill:#ffffff;fill-opacity:1;fill-rule:nonzero;stroke:none"
         id="path128" />
      <path
         d="M 85.754,67.691 H 70.785 c -0.777,0 -1.359,-0.582 -1.359,-1.359 V 46.02 c 0,-0.829 0.633,-1.364 1.41,-1.364 h 14.238 c 0.828,0 1.461,0.535 1.461,1.364 v 0.531 c 0,0.828 -0.633,1.363 -1.461,1.363 H 73.023 v 6.707 h 11.079 c 0.828,0 1.461,0.535 1.461,1.359 v 0.536 c 0,0.824 -0.633,1.359 -1.461,1.359 H 73.023 v 6.563 h 12.731 c 0.828,0 1.461,0.535 1.461,1.359 v 0.535 c 0,0.824 -0.633,1.359 -1.461,1.359"
         style="fill:#ffffff;fill-opacity:1;fill-rule:nonzero;stroke:none"
         id="path130" />
      <path
         d="M 105.777,67.691 H 96.25 c -3.012,0 -5.344,-2.574 -5.344,-5.539 V 50.051 c 0,-2.965 2.528,-5.395 5.539,-5.395 h 8.75 c 0.825,0 1.457,0.535 1.457,1.364 v 0.531 c 0,0.828 -0.632,1.363 -1.457,1.363 h -7.484 c -2.332,0 -3.207,1.359 -3.207,3.156 v 10.352 c 0,2.285 1.457,3.016 3.254,3.016 h 8.019 c 0.825,0 1.457,0.535 1.457,1.359 v 0.535 c 0,0.824 -0.632,1.359 -1.457,1.359"
         style="fill:#ffffff;fill-opacity:1;fill-rule:nonzero;stroke:none"
         id="path132" />
      <path
         d="m 125.801,50.586 c 0,-1.457 -1.219,-2.672 -2.676,-2.672 h -6.172 c -1.508,0 -2.672,1.215 -2.672,2.672 v 11.176 c 0,1.508 1.164,2.676 2.621,2.676 h 6.223 c 1.457,0 2.676,-1.168 2.676,-2.676 z M 124,67.691 h -7.922 c -3.012,0 -5.39,-2.476 -5.39,-5.441 V 50.004 c 0,-2.965 2.574,-5.348 5.585,-5.348 h 7.532 c 3.015,0 5.59,2.383 5.59,5.348 V 62.25 c 0,2.965 -2.43,5.441 -5.395,5.441"
         style="fill:#ffffff;fill-opacity:1;fill-rule:nonzero;stroke:none"
         id="path134" />
      <path
         d="m 153.887,67.691 h -0.68 c -0.777,0 -1.457,-0.628 -1.457,-1.457 V 50.879 l -4.859,6.801 c -0.438,0.586 -0.828,1.07 -1.555,1.07 h -0.488 c -0.731,0 -1.118,-0.484 -1.555,-1.07 l -4.859,-6.801 v 15.355 c 0,0.829 -0.68,1.457 -1.457,1.457 h -0.684 c -0.824,0 -1.453,-0.628 -1.453,-1.457 V 46.02 c 0,-0.778 0.531,-1.364 1.359,-1.364 h 0.875 c 0.629,0 1.164,0.586 1.504,1.071 l 6.516,9.183 6.558,-9.183 c 0.34,-0.485 0.828,-1.071 1.457,-1.071 h 0.875 c 0.829,0 1.364,0.586 1.364,1.364 v 20.214 c 0,0.829 -0.633,1.457 -1.461,1.457"
         style="fill:#ffffff;fill-opacity:1;fill-rule:nonzero;stroke:none"
         id="path136" />
    </g>
  </g>
</svg>
